<svg width="176" height="44" viewBox="0 0 176 44" fill="none" xmlns="http://www.w3.org/2000/svg">
<path d="M38.775 10.7662L23.65 2.48702C23.1445 2.20883 22.577 2.06296 22 2.06296C21.423 2.06296 20.8555 2.20883 20.35 2.48702L5.225 10.7662C4.6838 11.0624 4.23226 11.4987 3.91775 12.0294C3.60324 12.5601 3.43736 13.1657 3.4375 13.7826V30.2173C3.43736 30.8343 3.60324 31.4398 3.91775 31.9706C4.23226 32.5013 4.6838 32.9376 5.225 33.2337L20.35 41.513C20.8554 41.7915 21.423 41.9375 22 41.9375C22.577 41.9375 23.1446 41.7915 23.65 41.513L38.775 33.2337C39.3162 32.9376 39.7677 32.5013 40.0823 31.9706C40.3968 31.4398 40.5626 30.8343 40.5625 30.2173V13.7826C40.5626 13.1657 40.3968 12.5601 40.0823 12.0294C39.7677 11.4987 39.3162 11.0624 38.775 10.7662ZM22 6.28546L34.375 13.0625L30.6917 15.0786L18.3167 8.30327L22 6.28546ZM22 19.8344L9.625 13.0625L14.0181 10.6562L26.3931 17.4298L22 19.8344ZM7.5625 16.6358L19.9375 23.4076V36.5853L7.5625 29.81V16.6358ZM24.0625 36.5853V23.4076L28.1875 21.1509V26.125C28.1875 26.672 28.4048 27.1966 28.7916 27.5834C29.1784 27.9702 29.703 28.1875 30.25 28.1875C30.797 28.1875 31.3216 27.9702 31.7084 27.5834C32.0952 27.1966 32.3125 26.672 32.3125 26.125V18.8925L36.4375 16.6358V29.81L24.0625 36.5853Z" fill="#FF9900"/>
<path d="M44.336 29L53.632 7.58H53.856L63.152 29H58.448L52.512 13.936L55.452 11.92L48.34 29H44.336ZM50.692 21.552H56.88L58.308 24.968H49.432L50.692 21.552ZM69.0681 16.764L69.3761 18.92L69.3201 18.752C69.8054 17.9307 70.4121 17.296 71.1401 16.848C71.8681 16.3813 72.7454 16.148 73.7721 16.148C74.4441 16.148 75.0321 16.2413 75.5361 16.428C76.0588 16.6147 76.4974 16.8947 76.8521 17.268C77.2068 17.6227 77.4494 18.0893 77.5801 18.668L77.4401 18.696C77.9628 17.9307 78.5881 17.3147 79.3161 16.848C80.0628 16.3813 80.8374 16.148 81.6401 16.148C82.8534 16.148 83.8148 16.4933 84.5241 17.184C85.2521 17.856 85.6254 18.7333 85.6441 19.816V29H81.7521V21.44C81.7334 20.8987 81.6494 20.46 81.5001 20.124C81.3508 19.7693 81.0054 19.5733 80.4641 19.536C79.8294 19.536 79.2881 19.76 78.8401 20.208C78.4108 20.6373 78.0841 21.1973 77.8601 21.888C77.6548 22.56 77.5521 23.26 77.5521 23.988V29H73.6321V21.44C73.6134 20.8987 73.5108 20.46 73.3241 20.124C73.1561 19.7693 72.8014 19.5733 72.2601 19.536C71.6441 19.536 71.1214 19.76 70.6921 20.208C70.2814 20.6373 69.9641 21.188 69.7401 21.86C69.5348 22.532 69.4321 23.2227 69.4321 23.932V29H65.5121V16.764H69.0681ZM94.836 29.336C93.6973 29.336 92.6613 29.112 91.728 28.664C90.8133 28.1973 90.0853 27.488 89.544 26.536C89.0026 25.584 88.732 24.3707 88.732 22.896C88.732 21.5147 89.012 20.32 89.572 19.312C90.132 18.304 90.8693 17.5293 91.784 16.988C92.6986 16.428 93.6693 16.148 94.696 16.148C95.9093 16.148 96.824 16.3533 97.44 16.764C98.0746 17.156 98.5973 17.5947 99.008 18.08L98.84 18.556L99.204 16.764H102.844V29H98.924V26.34L99.232 27.18C99.1946 27.18 99.0826 27.292 98.896 27.516C98.7093 27.7213 98.4293 27.9733 98.056 28.272C97.7013 28.552 97.2533 28.7947 96.712 29C96.1893 29.224 95.564 29.336 94.836 29.336ZM95.956 26.144C96.4226 26.144 96.8426 26.0787 97.216 25.948C97.5893 25.7987 97.916 25.5933 98.196 25.332C98.476 25.052 98.7186 24.7067 98.924 24.296V21.3C98.7746 20.8893 98.5506 20.544 98.252 20.264C97.9533 19.9653 97.5986 19.7413 97.188 19.592C96.7773 19.424 96.32 19.34 95.816 19.34C95.256 19.34 94.7333 19.4893 94.248 19.788C93.7813 20.068 93.408 20.46 93.128 20.964C92.848 21.468 92.708 22.0467 92.708 22.7C92.708 23.3533 92.8573 23.9413 93.156 24.464C93.4546 24.9867 93.8466 25.3973 94.332 25.696C94.836 25.9947 95.3773 26.144 95.956 26.144ZM108.787 19.956C108.115 19.956 107.527 19.7133 107.023 19.228C106.519 18.7427 106.267 18.0893 106.267 17.268V15.588H109.207V15.98C109.207 16.372 109.273 16.6053 109.403 16.68C109.553 16.736 109.805 16.764 110.159 16.764H117.915L111.139 26.62L110.411 25.808H117.831V29H105.427L112.399 18.836L112.987 19.956H108.787Z" fill="#FF9900"/>
<path d="M121.764 17.408H124.368V29H121.764V17.408ZM121.568 13.208C121.568 12.7973 121.727 12.452 122.044 12.172C122.38 11.892 122.744 11.752 123.136 11.752C123.528 11.752 123.873 11.892 124.172 12.172C124.489 12.452 124.648 12.7973 124.648 13.208C124.648 13.6373 124.489 13.992 124.172 14.272C123.873 14.5333 123.528 14.664 123.136 14.664C122.744 14.664 122.38 14.524 122.044 14.244C121.727 13.964 121.568 13.6187 121.568 13.208ZM129.993 12.312H132.597V17.464H135.789V19.508H132.597V29H129.993V19.508H127.865V17.464H129.993V12.312ZM141.26 17.408L141.512 20.768L141.372 20.32C141.671 19.6107 142.1 19.0133 142.66 18.528C143.239 18.024 143.836 17.6413 144.452 17.38C145.087 17.1 145.637 16.96 146.104 16.96L145.964 19.536C145.087 19.48 144.312 19.648 143.64 20.04C142.987 20.432 142.464 20.9547 142.072 21.608C141.699 22.2613 141.512 22.9613 141.512 23.708V29H138.936V17.408H141.26ZM153.131 29.448C152.086 29.448 151.218 29.1307 150.527 28.496C149.855 27.8427 149.501 27.0027 149.463 25.976V17.408H152.067V25.052C152.105 25.6867 152.282 26.2 152.599 26.592C152.935 26.984 153.458 27.1893 154.167 27.208C154.821 27.208 155.399 27.0213 155.903 26.648C156.426 26.256 156.846 25.7333 157.163 25.08C157.481 24.408 157.639 23.652 157.639 22.812V17.408H160.243V29H157.863L157.639 26.144L157.779 26.648C157.555 27.1893 157.21 27.6747 156.743 28.104C156.295 28.5147 155.763 28.8413 155.147 29.084C154.531 29.3267 153.859 29.448 153.131 29.448ZM174.156 27.936C173.634 28.3467 173.008 28.6733 172.28 28.916C171.552 29.1587 170.824 29.28 170.096 29.28C168.827 29.28 167.716 29.028 166.764 28.524C165.812 28.02 165.066 27.32 164.524 26.424C164.002 25.5093 163.74 24.436 163.74 23.204C163.74 21.972 164.02 20.8987 164.58 19.984C165.159 19.0693 165.906 18.3693 166.82 17.884C167.754 17.38 168.752 17.128 169.816 17.128C170.75 17.128 171.58 17.2587 172.308 17.52C173.055 17.7813 173.69 18.136 174.212 18.584L172.924 20.264C172.588 20.0027 172.178 19.7693 171.692 19.564C171.207 19.3587 170.656 19.256 170.04 19.256C169.368 19.256 168.743 19.4333 168.164 19.788C167.604 20.124 167.156 20.5907 166.82 21.188C166.503 21.7853 166.344 22.4573 166.344 23.204C166.344 23.9133 166.512 24.576 166.848 25.192C167.184 25.7893 167.651 26.2653 168.248 26.62C168.846 26.956 169.527 27.124 170.292 27.124C170.796 27.124 171.254 27.0493 171.664 26.9C172.094 26.7507 172.476 26.5453 172.812 26.284L174.156 27.936Z" fill="#242938"/>
</svg>
