<svg width="54" height="20" viewBox="0 0 54 20" fill="none" xmlns="http://www.w3.org/2000/svg">
<rect y="10" width="13.6568" height="13.6568" transform="rotate(-45 0 10)" fill="url(#paint0_linear_93_1258)"/>
<rect x="3.68188" y="10.0125" width="8.4675" height="8.4675" transform="rotate(-45 3.68188 10.0125)" fill="url(#paint1_linear_93_1258)"/>
<path d="M22.4657 12.6V9.08C22.4657 7.48 23.2657 6.68 24.8657 6.68H28.0017L28.6417 7.16V7.8H24.8657C24.1191 7.8 23.7457 8.17333 23.7457 8.92V12.76C23.7457 13.5067 24.1191 13.88 24.8657 13.88H28.6417V14.52L28.0017 15H24.8657C23.2657 15 22.4657 14.2 22.4657 12.6ZM30.5922 15V7.64C30.9656 7 31.6589 6.68 32.6722 6.68H34.2722L34.9122 7.16V7.8H32.8482C32.4002 7.8 32.0749 7.92267 31.8722 8.168V15H30.5922ZM36.4813 12.6V9.08C36.4813 7.48 37.2813 6.68 38.8813 6.68H40.9613C42.5613 6.68 43.3613 7.48 43.3613 9.08V11.336H37.7613V12.76C37.7613 13.5067 38.1347 13.88 38.8813 13.88H43.0413V14.52L42.4013 15H38.8813C37.2813 15 36.4813 14.2 36.4813 12.6ZM37.7613 10.296H42.0813V8.92C42.0813 8.17333 41.708 7.8 40.9613 7.8H38.8813C38.1347 7.8 37.7613 8.17333 37.7613 8.92V10.296ZM47.7648 15C46.1542 15 45.3488 14.1947 45.3488 12.584C45.3488 10.9733 46.1542 10.168 47.7648 10.168H50.6928V8.92C50.6928 8.17333 50.3195 7.8 49.5728 7.8H46.1488V7.16L46.7888 6.68H49.5728C51.1728 6.68 51.9728 7.48 51.9728 9.08V15H47.7648ZM46.6288 12.76C46.6288 13.5067 47.0022 13.88 47.7488 13.88H50.6928V11.208H47.7488C47.0022 11.208 46.6288 11.5813 46.6288 12.328V12.76Z" fill="black"/>
<defs>
<linearGradient id="paint0_linear_93_1258" x1="18.8995" y1="19.2426" x2="-5.84618" y2="19.8462" gradientUnits="userSpaceOnUse">
<stop stop-color="#FAFF00"/>
<stop offset="1" stop-color="#EE8407"/>
</linearGradient>
<linearGradient id="paint1_linear_93_1258" x1="7.91563" y1="10.0125" x2="7.91563" y2="18.48" gradientUnits="userSpaceOnUse">
<stop stop-color="#EBFF00"/>
<stop offset="1" stop-color="#FF9900"/>
</linearGradient>
</defs>
</svg>
