<svg width="83" height="20" viewBox="0 0 83 20" fill="none" xmlns="http://www.w3.org/2000/svg">
<path d="M6.0755 8.4312C4.49552 7.56478 2.41608 8.18166 2.37513 9.98315C2.3701 10.2045 2.37597 10.4265 2.39291 10.6482C2.49294 11.957 2.97448 13.1984 3.77665 14.2155C4.57882 15.2325 5.66558 15.9794 6.89951 16.3619C8.13343 16.7443 9.45911 16.745 10.7089 16.364C11.9587 15.9829 13.0764 15.2371 13.9208 14.221C14.7652 13.2049 15.2983 11.964 15.4526 10.6553C15.607 9.34662 15.3757 8.02889 14.7881 6.86874C14.7108 6.71624 14.6279 6.56735 14.5395 6.42237C13.5784 4.84595 11.4315 5.44994 10.5437 7.0688L10.5051 7.13919C9.63868 8.71917 7.65548 9.29763 6.0755 8.4312V8.4312Z" fill="#2600BF"/>
<path d="M14.7785 10.5C15.6978 10.5 16.4615 9.74576 16.2591 8.84895C16.0576 7.95576 15.6931 7.10236 15.1791 6.33322C14.355 5.09985 13.1837 4.13856 11.8132 3.5709C10.4428 3.00325 8.9348 2.85472 7.47994 3.14411C6.02508 3.4335 4.68871 4.14781 3.63981 5.1967C2.59092 6.24559 1.87661 7.58197 1.58723 9.03682C1.29784 10.4917 1.44636 11.9997 2.01402 13.3701C2.58168 14.7406 3.54297 15.9119 4.77634 16.736C5.54547 17.2499 6.39887 17.6144 7.29206 17.816C8.18888 18.0184 8.94312 17.2547 8.94312 16.3353V16.3353C8.94312 15.416 8.16939 14.7001 7.32228 14.3428C7.07998 14.2406 6.84675 14.1153 6.62601 13.9678C5.94015 13.5095 5.40558 12.8581 5.08991 12.096C4.77425 11.334 4.69165 10.4954 4.85258 9.68634C5.01351 8.87731 5.41072 8.13417 5.994 7.55089C6.57728 6.96761 7.32043 6.57039 8.12946 6.40946C8.93849 6.24854 9.77707 6.33113 10.5392 6.6468C11.3013 6.96247 11.9526 7.49703 12.4109 8.1829C12.5584 8.40364 12.6838 8.63686 12.786 8.87917C13.1432 9.72627 13.8591 10.5 14.7785 10.5V10.5Z" fill="#532EE7"/>
<path d="M20.5128 16V14.064H23.3768C24.1021 14.064 24.7368 13.9147 25.2808 13.616C25.8248 13.3067 26.2461 12.8747 26.5448 12.32C26.8541 11.7653 27.0088 11.1093 27.0088 10.352C27.0088 9.616 26.8541 8.976 26.5448 8.432C26.2355 7.87733 25.8088 7.45067 25.2648 7.152C24.7208 6.84267 24.0915 6.688 23.3768 6.688H20.4648V4.752H23.4088C24.2408 4.752 25.0088 4.89067 25.7128 5.168C26.4275 5.44533 27.0461 5.84 27.5688 6.352C28.1021 6.85333 28.5128 7.44533 28.8008 8.128C29.0995 8.81067 29.2488 9.55733 29.2488 10.368C29.2488 11.1787 29.0995 11.9307 28.8008 12.624C28.5128 13.3067 28.1075 13.904 27.5848 14.416C27.0621 14.9173 26.4435 15.3067 25.7288 15.584C25.0248 15.8613 24.2621 16 23.4408 16H20.5128ZM19.0248 16V4.752H21.2008V16H19.0248ZM34.4499 16.16C33.6393 16.16 32.9193 15.9893 32.2899 15.648C31.6606 15.296 31.1593 14.816 30.7859 14.208C30.4233 13.6 30.2419 12.9067 30.2419 12.128C30.2419 11.36 30.4179 10.6773 30.7699 10.08C31.1326 9.472 31.6233 8.992 32.2419 8.64C32.8606 8.27733 33.5486 8.096 34.3059 8.096C35.0526 8.096 35.7086 8.26667 36.2739 8.608C36.8499 8.93867 37.2979 9.39733 37.6179 9.984C37.9486 10.56 38.1139 11.216 38.1139 11.952C38.1139 12.0907 38.1033 12.2347 38.0819 12.384C38.0713 12.5227 38.0446 12.6827 38.0019 12.864L31.5059 12.88V11.312L37.0259 11.296L36.1779 11.952C36.1566 11.4933 36.0713 11.1093 35.9219 10.8C35.7833 10.4907 35.5753 10.256 35.2979 10.096C35.0313 9.92533 34.7006 9.84 34.3059 9.84C33.8899 9.84 33.5273 9.936 33.2179 10.128C32.9086 10.3093 32.6686 10.5707 32.4979 10.912C32.3379 11.2427 32.2579 11.6373 32.2579 12.096C32.2579 12.5653 32.3433 12.976 32.5139 13.328C32.6953 13.6693 32.9513 13.936 33.2819 14.128C33.6126 14.3093 33.9966 14.4 34.4339 14.4C34.8286 14.4 35.1859 14.336 35.5059 14.208C35.8259 14.0693 36.1033 13.8667 36.3379 13.6L37.5699 14.832C37.1966 15.2693 36.7379 15.6 36.1939 15.824C35.6606 16.048 35.0793 16.16 34.4499 16.16ZM41.7972 16L38.3892 8.272H40.6932L43.1412 14.64H42.0052L44.4692 8.272H46.6932L43.3012 16H41.7972ZM49.4742 16L46.5782 8.272H48.6902L50.5782 13.888L49.9382 13.904L51.8742 8.272H53.3942L55.3302 13.904L54.6902 13.888L56.5782 8.272H58.6902L55.8102 16H54.2902L52.3382 10.656H52.9302L50.9782 16H49.4742ZM63.1672 16.16C62.3885 16.16 61.6845 15.984 61.0552 15.632C60.4365 15.2693 59.9405 14.784 59.5672 14.176C59.2045 13.5573 59.0232 12.8693 59.0232 12.112C59.0232 11.3547 59.2045 10.6773 59.5672 10.08C59.9298 9.472 60.4258 8.992 61.0552 8.64C61.6845 8.27733 62.3832 8.096 63.1512 8.096C63.9405 8.096 64.6445 8.27733 65.2632 8.64C65.8925 8.992 66.3885 9.472 66.7512 10.08C67.1138 10.6773 67.2952 11.3547 67.2952 12.112C67.2952 12.8693 67.1138 13.5573 66.7512 14.176C66.3885 14.784 65.8925 15.2693 65.2632 15.632C64.6445 15.984 63.9458 16.16 63.1672 16.16ZM63.1512 14.208C63.5458 14.208 63.8925 14.1227 64.1912 13.952C64.5005 13.7707 64.7352 13.5253 64.8952 13.216C65.0658 12.896 65.1512 12.5333 65.1512 12.128C65.1512 11.7227 65.0658 11.3653 64.8952 11.056C64.7245 10.7467 64.4898 10.5067 64.1912 10.336C63.8925 10.1547 63.5458 10.064 63.1512 10.064C62.7672 10.064 62.4258 10.1547 62.1272 10.336C61.8285 10.5067 61.5938 10.7467 61.4232 11.056C61.2525 11.3653 61.1672 11.7227 61.1672 12.128C61.1672 12.5333 61.2525 12.896 61.4232 13.216C61.5938 13.5253 61.8285 13.7707 62.1272 13.952C62.4258 14.1227 62.7672 14.208 63.1512 14.208ZM68.6446 16V8.272H70.7406V16H68.6446ZM70.7406 11.728L69.9246 11.184C70.0206 10.2347 70.2979 9.488 70.7566 8.944C71.2152 8.38933 71.8766 8.112 72.7406 8.112C73.1139 8.112 73.4499 8.176 73.7486 8.304C74.0472 8.42133 74.3192 8.61867 74.5646 8.896L73.2526 10.4C73.1352 10.272 72.9912 10.176 72.8206 10.112C72.6606 10.048 72.4739 10.016 72.2606 10.016C71.8126 10.016 71.4446 10.16 71.1566 10.448C70.8792 10.7253 70.7406 11.152 70.7406 11.728ZM80.2288 16L77.2368 12.016L80.2128 8.272H82.6288L79.1408 12.496L79.2208 11.472L82.7888 16H80.2288ZM75.3008 16V4.432H77.3968V16H75.3008Z" fill="black"/>
</svg>
