<svg width="50" height="20" viewBox="0 0 50 20" fill="none" xmlns="http://www.w3.org/2000/svg">
<circle cx="4.5" cy="10" r="4.5" fill="url(#paint0_linear_93_1248)"/>
<path d="M12.28 15V6.68H21.72C23.32 6.68 24.12 7.48 24.12 9.08V15H22.84V8.92C22.84 8.17333 22.4667 7.8 21.72 7.8H18.84V15H17.56V7.8H13.56V15H12.28ZM25.6638 14.712L29.2798 3.96H31.4878L35.1038 14.712L34.9118 15H33.8078L32.8958 12.216H27.8718L26.9598 15H25.8558L25.6638 14.712ZM28.2718 11H32.4958L30.5758 5.176H30.1918L28.2718 11ZM36.6379 15V7.64C37.0112 7 37.7045 6.68 38.7179 6.68H40.3179L40.9579 7.16V7.8H38.8939C38.4459 7.8 38.1205 7.92267 37.9179 8.168V15H36.6379ZM42.335 14.52V13.88H46.031C46.767 13.88 47.135 13.5067 47.135 12.76C47.135 12.0027 46.8417 11.576 46.255 11.48L44.351 11.16C43.007 10.936 42.335 10.2053 42.335 8.968C42.335 7.44267 43.135 6.68 44.735 6.68H47.407L48.047 7.16V7.8H44.719C43.9723 7.8 43.599 8.17333 43.599 8.92C43.599 9.592 43.9137 9.98133 44.543 10.088L46.447 10.408C47.7697 10.6213 48.431 11.384 48.431 12.696C48.431 14.232 47.6203 15 45.999 15H42.975L42.335 14.52Z" fill="black"/>
<defs>
<linearGradient id="paint0_linear_93_1248" x1="6.5" y1="12.5" x2="-1.5" y2="4" gradientUnits="userSpaceOnUse">
<stop stop-color="#ED0000"/>
<stop offset="1" stop-color="#FB84CB"/>
</linearGradient>
</defs>
</svg>
