<svg width="64" height="18" viewBox="0 0 64 18" fill="none" xmlns="http://www.w3.org/2000/svg">
<circle cx="3.25024" cy="9" r="3" fill="url(#paint0_linear_93_1247)"/>
<path d="M10.5781 5.0137C10.0309 4.08863 8.81405 3.75374 8.06791 4.52735C7.51407 5.10158 7.06774 5.77288 6.75549 6.51163C6.19295 7.84255 6.09718 9.31767 6.4831 10.7072C6.86902 12.0968 7.71496 13.3228 8.88915 14.1943C10.0633 15.0657 11.4999 15.5337 12.975 15.5254C14.4501 15.5171 15.881 15.0328 17.0447 14.1482C18.2085 13.2635 19.0398 12.028 19.4092 10.6342C19.7786 9.24032 19.6654 7.76638 19.0871 6.44192C18.766 5.70661 18.3116 5.0403 17.7509 4.47231C16.9958 3.70747 15.783 4.05641 15.2467 4.98779L15.1003 5.24199C14.6283 6.06161 15.0067 7.11479 15.3851 7.98157V7.98157C15.6154 8.50889 15.6605 9.09573 15.5134 9.65067C15.3663 10.2056 15.0354 10.6975 14.572 11.0497C14.1087 11.402 13.539 11.5948 12.9517 11.5981C12.3644 11.6014 11.7924 11.4151 11.3249 11.0681C10.8574 10.7211 10.5206 10.233 10.367 9.67976C10.2133 9.12652 10.2515 8.53922 10.4754 8.00933V8.00933C10.8435 7.13845 11.2096 6.0812 10.7282 5.26745L10.5781 5.0137Z" fill="#00BF2A"/>
<path d="M25.504 10.736C25.504 11.0667 25.5733 11.312 25.712 11.472C25.8507 11.632 26.0747 11.712 26.384 11.712C26.704 11.712 26.9227 11.6373 27.04 11.488C27.168 11.328 27.232 11.072 27.232 10.72V4.064H29.984V10.88C29.984 12.0213 29.6693 12.8533 29.04 13.376C28.4213 13.8987 27.504 14.16 26.288 14.16C25.0827 14.16 24.1813 13.904 23.584 13.392C22.9973 12.8693 22.704 12.0427 22.704 10.912V4.064H25.504V10.736ZM38.6395 14H36.0155L33.9515 9.376H33.8235V14H31.3915V4.064H34.0955L36.0635 8.832H36.1915V4.064H38.6395V14ZM42.9278 14H40.2078V4.064H42.9278V14ZM50.2769 6.48H48.4209V14H45.6849V6.48H43.7169L43.8769 4.064H50.4369L50.2769 6.48ZM53.9434 14H51.2234V4.064H53.9434V14ZM56.1085 5.104C56.7272 4.304 57.7352 3.904 59.1325 3.904C60.5298 3.904 61.5272 4.29867 62.1245 5.088C62.7325 5.87733 63.0365 7.16267 63.0365 8.944C63.0365 10.7147 62.7272 12.0267 62.1085 12.88C61.4898 13.7333 60.4872 14.16 59.1005 14.16C57.7138 14.16 56.7165 13.7387 56.1085 12.896C55.5005 12.0533 55.1965 10.7467 55.1965 8.976C55.1965 7.19467 55.5005 5.904 56.1085 5.104ZM60.2845 8.944C60.2845 7.96267 60.2045 7.30133 60.0445 6.96C59.8952 6.608 59.5805 6.432 59.1005 6.432C58.6312 6.432 58.3272 6.608 58.1885 6.96C58.0498 7.30133 57.9805 7.95733 57.9805 8.928V9.312C57.9805 10.3467 58.0552 11.0293 58.2045 11.36C58.3645 11.68 58.6792 11.84 59.1485 11.84C59.6285 11.84 59.9378 11.6853 60.0765 11.376C60.2152 11.0667 60.2845 10.4267 60.2845 9.456V8.944Z" fill="black"/>
<defs>
<linearGradient id="paint0_linear_93_1247" x1="4.25024" y1="10" x2="-0.749756" y2="5" gradientUnits="userSpaceOnUse">
<stop stop-color="#00ED7B"/>
<stop offset="1" stop-color="#00E833"/>
</linearGradient>
</defs>
</svg>
