<svg width="512" height="512" viewBox="0 0 512 512" fill="none" xmlns="http://www.w3.org/2000/svg">
<rect width="512" height="512" rx="256" fill="#E9EAFF"/>
<path d="M156.632 243L142.424 228.792V190.392L156.632 176.056H180.568L190.296 185.144V148.664H210.008V243H190.296V234.04L180.568 243H156.632ZM177.752 230.2L190.296 218.424V200.632L177.88 188.984L166.104 188.856L161.752 193.464V225.72L166.104 230.2H177.752ZM240.632 243L226.424 228.792V190.392L240.632 176.184H274.68L289.016 190.392V215.48H246.136V223.16L251.256 228.28L287.864 228.152V243H240.632ZM246.008 202.552H270.328V193.848L265.208 188.728L251.256 188.856L246.008 193.848V202.552ZM322.505 243L296.265 176.184H318.537L333.513 226.36H337.481L352.457 176.184H374.729L348.489 243H322.505Z" fill="#242938"/>
<path d="M67.532 332.079C65.724 331.25 63.7653 330.007 61.656 328.35C59.622 326.693 57.927 324.734 56.571 322.474C53.407 317.05 51.825 309.969 51.825 301.23C51.825 295.806 52.6913 290.985 54.424 286.766C56.1567 282.472 58.266 279.157 60.752 276.822C63.238 274.487 66.1007 272.566 69.34 271.059C74.538 268.648 79.736 267.443 84.934 267.443C93.6727 267.443 99.737 268.121 103.127 269.477C106.592 270.833 108.325 273.131 108.325 276.37C108.325 279.609 107.722 283.075 106.517 286.766C105.387 290.382 103.88 292.19 101.997 292.19C101.394 292.19 99.5487 291.55 96.46 290.269C93.4467 288.988 90.81 288.348 88.55 288.348C86.3653 288.348 84.6703 289.252 83.465 291.06C82.335 292.793 81.77 296.22 81.77 301.343C81.77 306.39 82.2973 309.856 83.352 311.739C84.4067 313.547 86.0263 314.451 88.211 314.451C90.471 314.451 93.2583 313.698 96.573 312.191C99.8877 310.684 101.733 309.931 102.11 309.931C103.541 309.931 104.897 311.626 106.178 315.016C107.534 318.406 108.212 321.419 108.212 324.056C108.212 328.124 106.103 330.987 101.884 332.644C97.6653 334.226 91.94 335.017 84.708 335.017C77.5513 335.017 71.826 334.038 67.532 332.079ZM145.593 251.058V331.288C145.593 332.117 143.446 332.795 139.152 333.322C134.858 333.774 130.413 334 125.818 334C121.298 334 118.36 333.812 117.004 333.435C115.723 332.983 115.083 332.267 115.083 331.288V253.092C115.083 251.435 117.192 249.815 121.411 248.233C125.705 246.651 130.3 245.86 135.197 245.86C142.128 245.86 145.593 247.593 145.593 251.058ZM184.56 275.579V331.288C184.56 332.117 182.376 332.795 178.006 333.322C173.712 333.774 169.268 334 164.672 334C160.152 334 157.214 333.812 155.858 333.435C154.578 332.983 153.937 332.267 153.937 331.288V277.613C153.937 275.956 156.047 274.336 160.265 272.754C164.559 271.097 169.23 270.268 174.277 270.268C181.133 270.268 184.56 272.038 184.56 275.579ZM169.192 245.86C174.164 245.86 178.044 246.613 180.831 248.12C183.694 249.551 185.125 252.188 185.125 256.03C185.125 262.81 179.852 266.2 169.305 266.2C158.759 266.2 153.485 262.81 153.485 256.03C153.485 249.25 158.721 245.86 169.192 245.86ZM207.568 332.079C205.76 331.25 203.801 330.007 201.692 328.35C199.658 326.693 197.963 324.734 196.607 322.474C193.443 317.05 191.861 309.969 191.861 301.23C191.861 295.806 192.727 290.985 194.46 286.766C196.193 282.472 198.302 279.157 200.788 276.822C203.274 274.487 206.137 272.566 209.376 271.059C214.574 268.648 219.772 267.443 224.97 267.443C233.709 267.443 239.773 268.121 243.163 269.477C246.628 270.833 248.361 273.131 248.361 276.37C248.361 279.609 247.758 283.075 246.553 286.766C245.423 290.382 243.916 292.19 242.033 292.19C241.43 292.19 239.585 291.55 236.496 290.269C233.483 288.988 230.846 288.348 228.586 288.348C226.401 288.348 224.706 289.252 223.501 291.06C222.371 292.793 221.806 296.22 221.806 301.343C221.806 306.39 222.333 309.856 223.388 311.739C224.443 313.547 226.062 314.451 228.247 314.451C230.507 314.451 233.294 313.698 236.609 312.191C239.924 310.684 241.769 309.931 242.146 309.931C243.577 309.931 244.933 311.626 246.214 315.016C247.57 318.406 248.248 321.419 248.248 324.056C248.248 328.124 246.139 330.987 241.92 332.644C237.701 334.226 231.976 335.017 224.744 335.017C217.587 335.017 211.862 334.038 207.568 332.079ZM285.629 331.288C285.629 332.117 283.52 332.795 279.301 333.322C275.082 333.774 270.675 334 266.08 334C261.485 334 258.509 333.812 257.153 333.435C255.797 332.983 255.119 332.267 255.119 331.288V253.092C255.119 251.435 257.228 249.815 261.447 248.233C265.741 246.651 270.336 245.86 275.233 245.86C282.164 245.86 285.629 247.593 285.629 251.058V293.32H287.098C290.714 276.069 293.388 267.443 295.121 267.443C299.49 267.443 304.764 268.46 310.941 270.494C317.118 272.528 320.207 274.788 320.207 277.274C320.207 279.082 318.7 282.547 315.687 287.67C312.674 292.793 309.547 296.974 306.308 300.213C317.081 313.095 322.467 320.741 322.467 323.152C322.467 325.412 319.039 328.162 312.184 331.401C305.329 334.64 300.507 336.26 297.72 336.26C296.364 336.26 294.933 334.64 293.426 331.401C291.919 328.086 290.3 323.152 288.567 316.598L285.629 320.101V331.288ZM356.677 308.462C356.677 313.359 359.012 315.807 363.683 315.807C366.395 315.807 369.936 314.903 374.305 313.095C378.674 311.212 380.972 310.27 381.198 310.27C382.629 310.27 384.513 312.417 386.848 316.711C389.183 321.005 390.351 324.169 390.351 326.203C390.351 329.141 387.338 331.363 381.311 332.87C375.284 334.377 369.371 335.13 363.57 335.13C357.845 335.13 353.023 334.678 349.106 333.774C345.264 332.87 342.1 331.74 339.614 330.384C337.203 328.953 335.056 327.22 333.173 325.186C331.365 323.152 330.009 321.231 329.105 319.423C328.201 317.54 327.485 315.468 326.958 313.208C326.205 309.893 325.828 306.466 325.828 302.925C325.828 289.214 329.406 279.76 336.563 274.562C340.104 271.925 344.059 270.08 348.428 269.025C352.797 267.97 357.958 267.443 363.909 267.443C382.968 267.443 392.498 274.072 392.498 287.331C392.498 301.418 381.801 308.462 360.406 308.462H356.677ZM356.451 291.964V299.422C358.636 299.422 360.406 298.556 361.762 296.823C363.193 295.09 363.909 292.981 363.909 290.495C363.909 285.975 362.741 283.715 360.406 283.715C357.769 283.715 356.451 286.465 356.451 291.964ZM429.748 298.292V331.288C429.748 332.117 427.601 332.795 423.307 333.322C419.089 333.774 414.682 334 410.086 334C405.566 334 402.628 333.812 401.272 333.435C399.916 332.983 399.238 332.267 399.238 331.288V275.579C399.238 274.148 401.31 272.603 405.453 270.946C409.672 269.289 414.23 268.46 419.126 268.46C424.098 268.46 426.886 269.816 427.488 272.528L428.618 277.726H429.409C430.464 274.863 432.988 272.453 436.98 270.494C440.973 268.46 444.966 267.443 448.958 267.443C452.951 267.443 455.738 268.083 457.32 269.364C458.978 270.645 459.806 272.302 459.806 274.336C459.806 276.295 459.656 278.818 459.354 281.907C459.053 284.996 458.3 288.348 457.094 291.964C455.964 295.58 454.458 297.388 452.574 297.388C451.821 297.388 449.448 296.823 445.455 295.693C441.463 294.563 438.148 293.998 435.511 293.998C432.95 293.998 431.33 294.375 430.652 295.128C430.05 295.881 429.748 296.936 429.748 298.292Z" fill="#532EE7"/>
</svg>
