<svg width="19" height="27" viewBox="0 0 19 27" fill="none" xmlns="http://www.w3.org/2000/svg">
<path d="M16.9384 10.7103L4.93842 0.710346C4.6362 0.454485 4.28632 0.260987 3.90895 0.141011C3.53157 0.0210345 3.13418 -0.0230439 2.73969 0.0113146C2.3452 0.0456731 1.96142 0.157789 1.61048 0.341198C1.25953 0.524608 0.948363 0.775682 0.694925 1.07994C0.441488 1.3842 0.250793 1.73562 0.133837 2.11393C0.0168809 2.49225 -0.0240199 2.88998 0.0134907 3.28418C0.0510013 3.67838 0.16618 4.06126 0.352388 4.41073C0.538597 4.7602 0.792152 5.06935 1.09842 5.32035L10.3334 13.0153L1.09842 20.7103C0.792152 20.9613 0.538597 21.2705 0.352388 21.62C0.16618 21.9694 0.0510013 22.3523 0.0134907 22.7465C-0.0240199 23.1407 0.0168809 23.5384 0.133837 23.9168C0.250793 24.2951 0.441488 24.6465 0.694925 24.9508C0.948363 25.255 1.25953 25.5061 1.61048 25.6895C1.96142 25.8729 2.3452 25.985 2.73969 26.0194C3.13418 26.0537 3.53157 26.0097 3.90895 25.8897C4.28632 25.7697 4.6362 25.5762 4.93842 25.3203L16.9384 15.3203C17.2764 15.0388 17.5483 14.6864 17.7349 14.2881C17.9215 13.8897 18.0183 13.4552 18.0183 13.0153C18.0183 12.5755 17.9215 12.141 17.7349 11.7426C17.5483 11.3443 17.2764 10.9919 16.9384 10.7103Z" fill="white"/>
</svg>
