<svg width="19" height="27" viewBox="0 0 19 27" fill="none" xmlns="http://www.w3.org/2000/svg">
<path d="M1.07989 15.3203L13.0799 25.3203C13.3821 25.5762 13.732 25.7697 14.1094 25.8896C14.4867 26.0096 14.8841 26.0537 15.2786 26.0193C15.6731 25.985 16.0569 25.8729 16.4078 25.6894C16.7588 25.506 17.0699 25.255 17.3234 24.9507C17.5768 24.6464 17.7675 24.295 17.8845 23.9167C18.0014 23.5384 18.0423 23.1407 18.0048 22.7465C17.9673 22.3523 17.8521 21.9694 17.6659 21.6199C17.4797 21.2704 17.2262 20.9613 16.9199 20.7103L7.68489 13.0153L16.9199 5.3203C17.2262 5.0693 17.4797 4.76015 17.6659 4.41068C17.8521 4.06121 17.9673 3.67833 18.0048 3.28413C18.0423 2.88993 18.0014 2.4922 17.8845 2.11388C17.7675 1.73556 17.5768 1.38414 17.3234 1.07989C17.0699 0.775628 16.7588 0.524556 16.4078 0.341146C16.0569 0.157737 15.6731 0.0456212 15.2786 0.0112627C14.8841 -0.0230959 14.4867 0.0209825 14.1094 0.140958C13.732 0.260934 13.3821 0.454433 13.0799 0.710294L1.07989 10.7103C0.741918 10.9918 0.469993 11.3443 0.283382 11.7426C0.0967707 12.1409 3.74159e-05 12.5754 3.73775e-05 13.0153C3.7339e-05 13.4552 0.0967705 13.8897 0.283382 14.288C0.469993 14.6863 0.741918 15.0387 1.07989 15.3203Z" fill="white"/>
</svg>
