<svg width="62" height="50" viewBox="0 0 62 50" fill="none" xmlns="http://www.w3.org/2000/svg">
<path d="M5 22H10V34H7C6.20435 34 5.44129 34.3161 4.87868 34.8787C4.31607 35.4413 4 36.2043 4 37C4 37.7957 4.31607 38.5587 4.87868 39.1213C5.44129 39.6839 6.20435 40 7 40H55C55.7957 40 56.5587 39.6839 57.1213 39.1213C57.6839 38.5587 58 37.7957 58 37C58 36.2043 57.6839 35.4413 57.1213 34.8787C56.5587 34.3161 55.7957 34 55 34H52V22H57C57.6532 22.0001 58.2886 21.7869 58.8097 21.3929C59.3307 20.9989 59.7089 20.4457 59.8868 19.8171C60.0647 19.1886 60.0327 18.5192 59.7954 17.9105C59.5582 17.3019 59.1288 16.7873 58.5725 16.445L32.5725 0.445001C32.0996 0.153951 31.5553 -0.000152588 31 -0.000152588C30.4447 -0.000152588 29.9004 0.153951 29.4275 0.445001L3.4275 16.445C2.87117 16.7873 2.44178 17.3019 2.20456 17.9105C1.96734 18.5192 1.93526 19.1886 2.11318 19.8171C2.2911 20.4457 2.66931 20.9989 3.19034 21.3929C3.71138 21.7869 4.34678 22.0001 5 22ZM16 22H22V34H16V22ZM34 22V34H28V22H34ZM46 34H40V22H46V34ZM31 6.5225L46.4 16H15.6L31 6.5225ZM62 47C62 47.7957 61.6839 48.5587 61.1213 49.1213C60.5587 49.6839 59.7957 50 59 50H3C2.20435 50 1.44129 49.6839 0.87868 49.1213C0.31607 48.5587 0 47.7957 0 47C0 46.2043 0.31607 45.4413 0.87868 44.8787C1.44129 44.3161 2.20435 44 3 44H59C59.7957 44 60.5587 44.3161 61.1213 44.8787C61.6839 45.4413 62 46.2043 62 47Z" fill="#E9EAFF"/>
</svg>
