<svg width="24" height="24" viewBox="0 0 24 24" fill="none" xmlns="http://www.w3.org/2000/svg">
<path d="M9.375 9.375C9.375 9.07663 9.49353 8.79048 9.7045 8.5795C9.91548 8.36853 10.2016 8.25 10.5 8.25H13.5C13.7984 8.25 14.0845 8.36853 14.2955 8.5795C14.5065 8.79048 14.625 9.07663 14.625 9.375C14.625 9.67337 14.5065 9.95952 14.2955 10.1705C14.0845 10.3815 13.7984 10.5 13.5 10.5H10.5C10.2016 10.5 9.91548 10.3815 9.7045 10.1705C9.49353 9.95952 9.375 9.67337 9.375 9.375ZM22.125 6.375V18.375C22.125 18.8723 21.9275 19.3492 21.5758 19.7008C21.2242 20.0525 20.7473 20.25 20.25 20.25H3.75C3.25272 20.25 2.77581 20.0525 2.42417 19.7008C2.07254 19.3492 1.875 18.8723 1.875 18.375V6.375C1.875 5.87772 2.07254 5.40081 2.42417 5.04917C2.77581 4.69754 3.25272 4.5 3.75 4.5H7.125V3.75C7.125 3.05381 7.40156 2.38613 7.89384 1.89384C8.38613 1.40156 9.05381 1.125 9.75 1.125H14.25C14.9462 1.125 15.6139 1.40156 16.1062 1.89384C16.5984 2.38613 16.875 3.05381 16.875 3.75V4.5H20.25C20.7473 4.5 21.2242 4.69754 21.5758 5.04917C21.9275 5.40081 22.125 5.87772 22.125 6.375ZM9.375 4.5H14.625V3.75C14.625 3.65054 14.5855 3.55516 14.5152 3.48484C14.4448 3.41451 14.3495 3.375 14.25 3.375H9.75C9.65054 3.375 9.55516 3.41451 9.48483 3.48484C9.41451 3.55516 9.375 3.65054 9.375 3.75V4.5ZM4.125 6.75V10.0528C6.5527 11.3323 9.25575 12.0007 12 12C14.7444 12.0006 17.4475 11.3319 19.875 10.0519V6.75H4.125ZM19.875 18V12.5569C17.3997 13.6732 14.7153 14.2503 12 14.25C9.28463 14.2505 6.60022 13.6733 4.125 12.5569V18H19.875Z" fill="#A29FB0"/>
</svg>
