<svg width="24" height="24" viewBox="0 0 24 24" fill="none" xmlns="http://www.w3.org/2000/svg">
<path d="M22.5 19.1251H21.375V9.00005C21.375 8.50277 21.1775 8.02586 20.8258 7.67423C20.4742 7.3226 19.9973 7.12505 19.5 7.12505H16.125V3.00005C16.1249 2.68486 16.0453 2.37479 15.8936 2.09849C15.742 1.82218 15.5231 1.58858 15.2573 1.41926C14.9914 1.24994 14.6872 1.15036 14.3726 1.12975C14.0581 1.10913 13.7435 1.16813 13.4578 1.3013L3.70781 5.85193C3.38466 6.00331 3.11125 6.24352 2.91952 6.54449C2.72778 6.84545 2.62563 7.19476 2.625 7.55161V19.1251H1.5C1.20163 19.1251 0.915483 19.2436 0.704505 19.4546C0.493526 19.6655 0.375 19.9517 0.375 20.2501C0.375 20.5484 0.493526 20.8346 0.704505 21.0455C0.915483 21.2565 1.20163 21.3751 1.5 21.3751H22.5C22.7984 21.3751 23.0845 21.2565 23.2955 21.0455C23.5065 20.8346 23.625 20.5484 23.625 20.2501C23.625 19.9517 23.5065 19.6655 23.2955 19.4546C23.0845 19.2436 22.7984 19.1251 22.5 19.1251ZM19.125 9.37505V19.1251H16.125V9.37505H19.125ZM4.875 7.78974L13.875 3.59068V19.1251H4.875V7.78974ZM12.375 10.5001V11.6251C12.375 11.9234 12.2565 12.2096 12.0455 12.4205C11.8345 12.6315 11.5484 12.7501 11.25 12.7501C10.9516 12.7501 10.6655 12.6315 10.4545 12.4205C10.2435 12.2096 10.125 11.9234 10.125 11.6251V10.5001C10.125 10.2017 10.2435 9.91554 10.4545 9.70456C10.6655 9.49358 10.9516 9.37505 11.25 9.37505C11.5484 9.37505 11.8345 9.49358 12.0455 9.70456C12.2565 9.91554 12.375 10.2017 12.375 10.5001ZM8.625 10.5001V11.6251C8.625 11.9234 8.50647 12.2096 8.2955 12.4205C8.08452 12.6315 7.79837 12.7501 7.5 12.7501C7.20163 12.7501 6.91548 12.6315 6.7045 12.4205C6.49353 12.2096 6.375 11.9234 6.375 11.6251V10.5001C6.375 10.2017 6.49353 9.91554 6.7045 9.70456C6.91548 9.49358 7.20163 9.37505 7.5 9.37505C7.79837 9.37505 8.08452 9.49358 8.2955 9.70456C8.50647 9.91554 8.625 10.2017 8.625 10.5001ZM8.625 15.3751V16.5001C8.625 16.7984 8.50647 17.0846 8.2955 17.2955C8.08452 17.5065 7.79837 17.6251 7.5 17.6251C7.20163 17.6251 6.91548 17.5065 6.7045 17.2955C6.49353 17.0846 6.375 16.7984 6.375 16.5001V15.3751C6.375 15.0767 6.49353 14.7905 6.7045 14.5796C6.91548 14.3686 7.20163 14.2501 7.5 14.2501C7.79837 14.2501 8.08452 14.3686 8.2955 14.5796C8.50647 14.7905 8.625 15.0767 8.625 15.3751ZM12.375 15.3751V16.5001C12.375 16.7984 12.2565 17.0846 12.0455 17.2955C11.8345 17.5065 11.5484 17.6251 11.25 17.6251C10.9516 17.6251 10.6655 17.5065 10.4545 17.2955C10.2435 17.0846 10.125 16.7984 10.125 16.5001V15.3751C10.125 15.0767 10.2435 14.7905 10.4545 14.5796C10.6655 14.3686 10.9516 14.2501 11.25 14.2501C11.5484 14.2501 11.8345 14.3686 12.0455 14.5796C12.2565 14.7905 12.375 15.0767 12.375 15.3751Z" fill="#A29FB0"/>
</svg>
