<svg width="24" height="24" viewBox="0 0 24 24" fill="none" xmlns="http://www.w3.org/2000/svg">
<path d="M16.6013 10.7306C17.0811 10.1464 17.4061 9.4507 17.5461 8.70774C17.6861 7.96478 17.6367 7.19852 17.4024 6.4797C17.1681 5.76089 16.7564 5.11269 16.2055 4.59497C15.6545 4.07725 14.982 3.70669 14.25 3.5175V2.25C14.25 1.95163 14.1315 1.66548 13.9205 1.4545C13.7095 1.24353 13.4234 1.125 13.125 1.125C12.8266 1.125 12.5405 1.24353 12.3295 1.4545C12.1185 1.66548 12 1.95163 12 2.25V3.375H10.5V2.25C10.5 1.95163 10.3815 1.66548 10.1705 1.4545C9.95952 1.24353 9.67337 1.125 9.375 1.125C9.07663 1.125 8.79048 1.24353 8.5795 1.4545C8.36853 1.66548 8.25 1.95163 8.25 2.25V3.375H6C5.70163 3.375 5.41548 3.49353 5.2045 3.7045C4.99353 3.91548 4.875 4.20163 4.875 4.5C4.875 4.79837 4.99353 5.08452 5.2045 5.2955C5.41548 5.50647 5.70163 5.625 6 5.625H6.375V17.625H6C5.70163 17.625 5.41548 17.7435 5.2045 17.9545C4.99353 18.1655 4.875 18.4516 4.875 18.75C4.875 19.0484 4.99353 19.3345 5.2045 19.5455C5.41548 19.7565 5.70163 19.875 6 19.875H8.25V21C8.25 21.2984 8.36853 21.5845 8.5795 21.7955C8.79048 22.0065 9.07663 22.125 9.375 22.125C9.67337 22.125 9.95952 22.0065 10.1705 21.7955C10.3815 21.5845 10.5 21.2984 10.5 21V19.875H12V21C12 21.2984 12.1185 21.5845 12.3295 21.7955C12.5405 22.0065 12.8266 22.125 13.125 22.125C13.4234 22.125 13.7095 22.0065 13.9205 21.7955C14.1315 21.5845 14.25 21.2984 14.25 21V19.875C15.3313 19.8745 16.3817 19.5146 17.236 18.8519C18.0903 18.1892 18.7001 17.2612 18.9694 16.214C19.2386 15.1668 19.1521 14.0598 18.7234 13.0672C18.2947 12.0745 17.5482 11.2526 16.6013 10.7306ZM15.375 7.875C15.375 8.47174 15.1379 9.04403 14.716 9.46599C14.294 9.88795 13.7217 10.125 13.125 10.125H8.625V5.625H13.125C13.7217 5.625 14.294 5.86205 14.716 6.28401C15.1379 6.70597 15.375 7.27826 15.375 7.875ZM14.25 17.625H8.625V12.375H14.25C14.9462 12.375 15.6139 12.6516 16.1062 13.1438C16.5984 13.6361 16.875 14.3038 16.875 15C16.875 15.6962 16.5984 16.3639 16.1062 16.8562C15.6139 17.3484 14.9462 17.625 14.25 17.625Z" fill="#A29FB0"/>
</svg>
