<svg width="24" height="24" viewBox="0 0 24 24" fill="none" xmlns="http://www.w3.org/2000/svg">
<path d="M23.4187 8.01465L12.5437 2.01465C12.3772 1.92272 12.1901 1.87451 12 1.87451C11.8098 1.87451 11.6227 1.92272 11.4562 2.01465L0.581216 8.01465C0.405377 8.11193 0.258808 8.25455 0.156746 8.42766C0.0546836 8.60077 0.000854492 8.79806 0.000854492 8.99902C0.000854492 9.19998 0.0546836 9.39727 0.156746 9.57038C0.258808 9.74349 0.405377 9.88611 0.581216 9.9834L2.62497 11.1084V15.5859C2.62423 16.0468 2.79422 16.4917 3.10215 16.8346C4.37153 18.2531 7.21872 20.625 12 20.625C13.2698 20.6318 14.5335 20.4501 15.75 20.0859V22.5C15.75 22.7983 15.8685 23.0845 16.0795 23.2955C16.2904 23.5064 16.5766 23.625 16.875 23.625C17.1733 23.625 17.4595 23.5064 17.6705 23.2955C17.8814 23.0845 18 22.7983 18 22.5V19.1362C19.0865 18.536 20.0658 17.7595 20.8978 16.8384C21.2057 16.4954 21.3757 16.0506 21.375 15.5896V11.1121L23.4187 9.98715C23.5946 9.88986 23.7411 9.74724 23.8432 9.57413C23.9452 9.40102 23.9991 9.20373 23.9991 9.00277C23.9991 8.80181 23.9452 8.60452 23.8432 8.43141C23.7411 8.2583 23.5946 8.11568 23.4187 8.0184V8.01465ZM12 4.28527L20.5462 8.99996L17.4375 10.7156C17.4316 10.7122 17.426 10.7084 17.4206 10.7043L12.5456 8.01465C12.2853 7.88012 11.9828 7.85245 11.7025 7.93751C11.4221 8.02256 11.186 8.21364 11.0443 8.4701C10.9026 8.72656 10.8666 9.02816 10.9439 9.31077C11.0212 9.59338 11.2056 9.8347 11.4581 9.9834L15.1143 11.9981L12 13.7156L3.45372 8.99996L12 4.28527ZM12 18.375C8.21059 18.375 5.93903 16.5871 4.87497 15.4434V12.3496L11.4562 15.9815C11.6227 16.0734 11.8098 16.1217 12 16.1217C12.1901 16.1217 12.3772 16.0734 12.5437 15.9815L15.75 14.2162V17.7065C14.552 18.1593 13.2805 18.3859 12 18.375ZM19.125 15.4434C18.78 15.8131 18.4036 16.1522 18 16.4568V12.974L19.125 12.3534V15.4434Z" fill="#A29FB0"/>
</svg>
