<svg width="64" height="59" viewBox="0 0 64 59" fill="none" xmlns="http://www.w3.org/2000/svg">
<path d="M62.4501 17.3725L33.4501 1.3725C33.0061 1.12738 32.5072 0.99881 32.0001 0.99881C31.4929 0.99881 30.994 1.12738 30.5501 1.3725L1.55007 17.3725C1.08117 17.6319 0.690318 18.0122 0.418152 18.4739C0.145986 18.9355 0.00244141 19.4616 0.00244141 19.9975C0.00244141 20.5334 0.145986 21.0595 0.418152 21.5211C0.690318 21.9828 1.08117 22.3631 1.55007 22.6225L7.00007 25.6225V37.5625C6.9981 38.7916 7.45142 39.9779 8.27257 40.8925C11.6576 44.675 19.2501 51 32.0001 51C35.3862 51.0182 38.7562 50.5338 42.0001 49.5625V56C42.0001 56.7956 42.3161 57.5587 42.8788 58.1213C43.4414 58.6839 44.2044 59 45.0001 59C45.7957 59 46.5588 58.6839 47.1214 58.1213C47.684 57.5587 48.0001 56.7956 48.0001 56V47.03C50.8975 45.4296 53.5089 43.3589 55.7276 40.9025C56.5487 39.9879 57.002 38.8016 57.0001 37.5725V25.6325L62.4501 22.6325C62.919 22.3731 63.3098 21.9928 63.582 21.5311C63.8542 21.0695 63.9977 20.5434 63.9977 20.0075C63.9977 19.4716 63.8542 18.9455 63.582 18.4839C63.3098 18.0222 62.919 17.6419 62.4501 17.3825V17.3725ZM32.0001 7.4275L54.7901 20L46.5001 24.575C46.4845 24.5659 46.4695 24.5559 46.4551 24.545L33.4551 17.3725C32.761 17.0138 31.9544 16.94 31.2067 17.1668C30.4591 17.3936 29.8294 17.9031 29.4516 18.587C29.0739 19.2709 28.9778 20.0752 29.1839 20.8288C29.3899 21.5825 29.8819 22.226 30.5551 22.6225L40.3051 27.995L32.0001 32.575L9.21007 20L32.0001 7.4275ZM32.0001 45C21.8951 45 15.8376 40.2325 13.0001 37.1825V28.9325L30.5501 38.6175C30.994 38.8626 31.4929 38.9912 32.0001 38.9912C32.5072 38.9912 33.0061 38.8626 33.4501 38.6175L42.0001 33.91V43.2175C38.8056 44.4249 35.4149 45.0293 32.0001 45ZM51.0001 37.1825C50.0801 38.1684 49.0764 39.0727 48.0001 39.885V30.5975L51.0001 28.9425V37.1825Z" fill="white"/>
</svg>
