<svg width="24" height="24" viewBox="0 0 24 24" fill="none" xmlns="http://www.w3.org/2000/svg">
<path d="M19.0847 4.78123C17.663 3.38264 15.8597 2.43548 13.9013 2.0588C11.9429 1.68211 9.91687 1.89271 8.07782 2.66411C6.23877 3.43552 4.66877 4.73331 3.56514 6.39439C2.46151 8.05546 1.8735 10.0057 1.875 12C1.875 16.1925 4.4625 19.7109 8.625 21.1819C9.13405 21.3618 9.67885 21.417 10.2137 21.3429C10.7485 21.2687 11.2577 21.0673 11.6985 20.7556C12.1394 20.4439 12.499 20.0309 12.7472 19.5514C12.9954 19.0719 13.125 18.5399 13.125 18C13.125 17.7016 13.2435 17.4155 13.4545 17.2045C13.6655 16.9935 13.9516 16.875 14.25 16.875H18.5822C19.3479 16.8786 20.0918 16.6202 20.6903 16.1427C21.2889 15.6652 21.7062 14.9973 21.8728 14.25C22.0467 13.4839 22.1313 12.7002 22.125 11.9147C22.1158 10.5836 21.8422 9.26756 21.3203 8.04301C20.7984 6.81845 20.0385 5.70975 19.0847 4.78123ZM19.6791 13.7503C19.6232 13.999 19.4839 14.2211 19.2844 14.3797C19.0849 14.5383 18.8371 14.6239 18.5822 14.6222H14.25C13.3549 14.6222 12.4965 14.9777 11.8635 15.6107C11.2306 16.2436 10.875 17.1021 10.875 17.9972C10.8748 18.177 10.8315 18.3542 10.7486 18.5139C10.6658 18.6736 10.5459 18.811 10.399 18.9148C10.2521 19.0186 10.0824 19.0856 9.90424 19.1103C9.72607 19.1349 9.54459 19.1165 9.375 19.0565C7.81407 18.5053 6.50157 17.579 5.58 16.379C4.62267 15.1212 4.11081 13.5807 4.125 12C4.12489 9.92545 4.94337 7.93468 6.40263 6.46015C7.86188 4.98563 9.84403 4.14647 11.9184 4.12498H12C14.0745 4.13342 16.0626 4.95672 17.5357 6.41738C19.0088 7.87804 19.849 9.85907 19.875 11.9334C19.8801 12.5458 19.8144 13.1568 19.6791 13.754V13.7503ZM13.5 7.12498C13.5 7.42165 13.412 7.71166 13.2472 7.95833C13.0824 8.20501 12.8481 8.39727 12.574 8.5108C12.2999 8.62433 11.9983 8.65403 11.7074 8.59616C11.4164 8.53828 11.1491 8.39542 10.9393 8.18564C10.7296 7.97586 10.5867 7.70859 10.5288 7.41761C10.4709 7.12664 10.5007 6.82504 10.6142 6.55095C10.7277 6.27687 10.92 6.0426 11.1666 5.87777C11.4133 5.71295 11.7033 5.62498 12 5.62498C12.3978 5.62498 12.7794 5.78301 13.0607 6.06432C13.342 6.34562 13.5 6.72715 13.5 7.12498ZM9.375 9.37498C9.375 9.67165 9.28703 9.96166 9.12221 10.2083C8.95739 10.455 8.72312 10.6473 8.44903 10.7608C8.17494 10.8743 7.87334 10.904 7.58237 10.8462C7.2914 10.7883 7.02412 10.6454 6.81434 10.4356C6.60456 10.2259 6.4617 9.95859 6.40382 9.66761C6.34595 9.37664 6.37565 9.07504 6.48918 8.80095C6.60271 8.52686 6.79497 8.2926 7.04165 8.12777C7.28832 7.96295 7.57833 7.87498 7.875 7.87498C8.27283 7.87498 8.65436 8.03301 8.93566 8.31432C9.21697 8.59562 9.375 8.97715 9.375 9.37498ZM9.375 14.625C9.375 14.9217 9.28703 15.2117 9.12221 15.4583C8.95739 15.705 8.72312 15.8973 8.44903 16.0108C8.17494 16.1243 7.87334 16.154 7.58237 16.0962C7.2914 16.0383 7.02412 15.8954 6.81434 15.6856C6.60456 15.4759 6.4617 15.2086 6.40382 14.9176C6.34595 14.6266 6.37565 14.325 6.48918 14.051C6.60271 13.7769 6.79497 13.5426 7.04165 13.3778C7.28832 13.213 7.57833 13.125 7.875 13.125C8.27283 13.125 8.65436 13.283 8.93566 13.5643C9.21697 13.8456 9.375 14.2272 9.375 14.625ZM17.625 9.37498C17.625 9.67165 17.537 9.96166 17.3722 10.2083C17.2074 10.455 16.9731 10.6473 16.699 10.7608C16.4249 10.8743 16.1233 10.904 15.8324 10.8462C15.5414 10.7883 15.2741 10.6454 15.0643 10.4356C14.8546 10.2259 14.7117 9.95859 14.6538 9.66761C14.5959 9.37664 14.6257 9.07504 14.7392 8.80095C14.8527 8.52686 15.045 8.2926 15.2916 8.12777C15.5383 7.96295 15.8283 7.87498 16.125 7.87498C16.5228 7.87498 16.9044 8.03301 17.1857 8.31432C17.467 8.59562 17.625 8.97715 17.625 9.37498Z" fill="#A29FB0"/>
</svg>
