<svg width="26" height="26" viewBox="0 0 26 26" fill="none" xmlns="http://www.w3.org/2000/svg">
<path d="M23.1562 13C23.1562 13.3232 23.0278 13.6332 22.7993 13.8618C22.5707 14.0903 22.2607 14.2188 21.9375 14.2188H14.2188V21.9375C14.2188 22.2607 14.0903 22.5707 13.8618 22.7993C13.6332 23.0278 13.3232 23.1562 13 23.1562C12.6768 23.1562 12.3668 23.0278 12.1382 22.7993C11.9097 22.5707 11.7813 22.2607 11.7812 21.9375V14.2188H4.0625C3.73927 14.2188 3.42927 14.0903 3.20071 13.8618C2.97215 13.6332 2.84375 13.3232 2.84375 13C2.84375 12.6768 2.97215 12.3668 3.20071 12.1382C3.42927 11.9097 3.73927 11.7813 4.0625 11.7812H11.7812V4.0625C11.7812 3.73927 11.9097 3.42927 12.1382 3.20071C12.3668 2.97215 12.6768 2.84375 13 2.84375C13.3232 2.84375 13.6332 2.97215 13.8618 3.20071C14.0903 3.42927 14.2188 3.73927 14.2188 4.0625V11.7812H21.9375C22.2607 11.7813 22.5707 11.9097 22.7993 12.1382C23.0278 12.3668 23.1562 12.6768 23.1562 13Z" fill="#E6E8FC"/>
</svg>
