<svg width="56" height="56" viewBox="0 0 56 56" fill="none" xmlns="http://www.w3.org/2000/svg">
<path d="M55.3025 11.0775C55.021 10.7403 54.6689 10.469 54.271 10.2828C53.8732 10.0966 53.4393 10.0001 53 10H13.5L12.4325 4.105C12.2229 2.95294 11.6156 1.91099 10.7165 1.16081C9.81736 0.410636 8.68347 -0.000176671 7.5125 5.69963e-08H3C2.20435 5.69963e-08 1.44129 0.316071 0.87868 0.87868C0.31607 1.44129 0 2.20435 0 3C0 3.79565 0.31607 4.55871 0.87868 5.12132C1.44129 5.68393 2.20435 6 3 6H6.6775L12.905 40.25C13.0722 41.1597 13.418 42.0272 13.9225 42.8025C13.0294 43.8475 12.4206 45.1051 12.1549 46.4538C11.8892 47.8026 11.9755 49.1971 12.4056 50.5028C12.8357 51.8085 13.5949 52.9813 14.6102 53.9082C15.6254 54.8351 16.8623 55.4847 18.2017 55.7944C19.541 56.1041 20.9376 56.0635 22.2567 55.6764C23.5757 55.2893 24.7728 54.5689 25.7324 53.5845C26.692 52.6002 27.3818 51.3852 27.7352 50.0567C28.0886 48.7282 28.0937 47.331 27.75 46H36.25C35.8329 47.6153 35.9313 49.3205 36.5313 50.8772C37.1312 52.4338 38.2029 53.7639 39.5962 54.6814C40.9895 55.5989 42.6347 56.0579 44.3018 55.9942C45.9688 55.9304 47.5742 55.3471 48.8934 54.3258C50.2125 53.3045 51.1793 51.8964 51.6587 50.2985C52.138 48.7006 52.1058 46.9928 51.5665 45.4141C51.0273 43.8354 50.008 42.4647 48.6512 41.494C47.2945 40.5232 45.6683 40.0008 44 40H19.7925C19.5587 39.9997 19.3324 39.9175 19.1529 39.7677C18.9734 39.6179 18.8521 39.41 18.81 39.18L18.23 36H46.025C47.6647 36 49.2524 35.4244 50.5111 34.3736C51.7698 33.3227 52.6197 31.8633 52.9125 30.25L55.9525 13.535C56.0307 13.1028 56.013 12.6586 55.9007 12.234C55.7883 11.8094 55.5841 11.4146 55.3025 11.0775ZM22 48C22 48.3956 21.8827 48.7822 21.6629 49.1111C21.4432 49.44 21.1308 49.6964 20.7654 49.8478C20.3999 49.9991 19.9978 50.0387 19.6098 49.9616C19.2219 49.8844 18.8655 49.6939 18.5858 49.4142C18.3061 49.1345 18.1156 48.7781 18.0384 48.3902C17.9613 48.0022 18.0009 47.6001 18.1522 47.2346C18.3036 46.8692 18.56 46.5568 18.8889 46.3371C19.2178 46.1173 19.6044 46 20 46C20.5304 46 21.0391 46.2107 21.4142 46.5858C21.7893 46.9609 22 47.4696 22 48ZM44 50C43.6044 50 43.2178 49.8827 42.8889 49.6629C42.56 49.4432 42.3036 49.1308 42.1522 48.7654C42.0009 48.3999 41.9613 47.9978 42.0384 47.6098C42.1156 47.2219 42.3061 46.8655 42.5858 46.5858C42.8655 46.3061 43.2219 46.1156 43.6098 46.0384C43.9978 45.9613 44.3999 46.0009 44.7654 46.1522C45.1308 46.3036 45.4432 46.56 45.6629 46.8889C45.8827 47.2178 46 47.6044 46 48C46 48.5304 45.7893 49.0391 45.4142 49.4142C45.0391 49.7893 44.5304 50 44 50ZM47 29.18C46.9582 29.4087 46.8379 29.6157 46.66 29.7654C46.482 29.915 46.2575 29.998 46.025 30H17.14L14.595 16H49.405L47 29.18Z" fill="#E9EAFF"/>
</svg>
