<svg width="24" height="24" viewBox="0 0 24 24" fill="none" xmlns="http://www.w3.org/2000/svg">
<path d="M21.6066 6.32808C21.5384 6.15941 21.4302 6.00981 21.2915 5.89211C21.1527 5.77441 20.9875 5.69212 20.8099 5.6523C20.6324 5.61248 20.4479 5.61631 20.2721 5.66347C20.0964 5.71063 19.9347 5.79972 19.801 5.92308L16.1653 9.2812L14.9766 9.0262L14.7188 7.83464L18.0741 4.19902C18.1975 4.06527 18.2865 3.9036 18.3337 3.72787C18.3809 3.55214 18.3847 3.36759 18.3449 3.19005C18.3051 3.01251 18.2228 2.84728 18.1051 2.70852C17.9874 2.56977 17.8378 2.46163 17.6691 2.39339C16.3775 1.87084 14.9611 1.73843 13.595 2.01256C12.229 2.28669 10.9732 2.95532 9.98327 3.93573C8.99329 4.91613 8.31248 6.16528 8.02508 7.5286C7.73768 8.89193 7.85631 10.3096 8.36629 11.6062L2.92223 16.3125C2.9016 16.3303 2.88098 16.349 2.86223 16.3687C2.2378 17.0034 1.88947 17.8591 1.89309 18.7494C1.89672 19.6398 2.25201 20.4926 2.88158 21.1222C3.51115 21.7517 4.36399 22.107 5.25432 22.1106C6.14466 22.1143 7.00036 21.7659 7.63504 21.1415C7.65473 21.1228 7.67348 21.1021 7.69129 21.0815L12.3938 15.6375C13.6911 16.1484 15.1098 16.2675 16.4741 15.98C17.8384 15.6925 19.0884 15.011 20.0692 14.0199C21.05 13.0289 21.7184 11.7719 21.9917 10.4046C22.2649 9.03736 22.1311 7.61998 21.6066 6.32808ZM15 13.875C14.1762 13.875 13.3658 13.6667 12.6441 13.2693C12.4183 13.1449 12.1567 13.1017 11.9029 13.1471C11.6491 13.1925 11.4187 13.3237 11.25 13.5187L6.01973 19.5703C5.80838 19.7816 5.52174 19.9003 5.22285 19.9003C4.92396 19.9003 4.63732 19.7816 4.42598 19.5703C4.21463 19.3589 4.0959 19.0723 4.0959 18.7734C4.0959 18.4745 4.21463 18.1879 4.42598 17.9765L10.4813 12.75C10.6766 12.5811 10.8079 12.3502 10.8531 12.0961C10.8983 11.8419 10.8548 11.5799 10.7297 11.354C10.3204 10.6117 10.1117 9.7754 10.1242 8.92776C10.1368 8.08012 10.3701 7.2504 10.8013 6.5205C11.2325 5.7906 11.8465 5.18575 12.5828 4.76565C13.3192 4.34555 14.1523 4.12472 15 4.12495H15.0835L12.6722 6.73777C12.5501 6.8702 12.4617 7.03 12.4142 7.20375C12.3667 7.37749 12.3616 7.5601 12.3994 7.7362L12.93 10.2065C12.9756 10.4183 13.0813 10.6124 13.2344 10.7656C13.3876 10.9187 13.5817 11.0244 13.7935 11.07L16.2638 11.6006C16.4399 11.6384 16.6225 11.6333 16.7962 11.5858C16.97 11.5383 17.1298 11.4498 17.2622 11.3278L19.875 8.91745V9.00089C19.8733 10.2932 19.3591 11.5321 18.4452 12.4458C17.5313 13.3595 16.2923 13.8735 15 13.875Z" fill="#A29FB0"/>
</svg>
