<svg width="41" height="41" viewBox="0 0 41 41" fill="none" xmlns="http://www.w3.org/2000/svg">
<path d="M39.875 19.875C39.873 18.1689 39.4065 16.4955 38.5257 15.0344C37.6448 13.5733 36.3828 12.3796 34.875 11.5813C34.8398 9.92522 34.2994 8.31948 33.3261 6.97921C32.3528 5.63893 30.9931 4.62816 29.4292 4.08232C27.8653 3.53649 26.172 3.48168 24.576 3.92524C22.9801 4.3688 21.5579 5.28954 20.5 6.56407C19.442 5.28954 18.0198 4.3688 16.4239 3.92524C14.828 3.48168 13.1346 3.53649 11.5707 4.08232C10.0068 4.62816 8.64714 5.63893 7.67382 6.97921C6.70051 8.31948 6.16008 9.92522 6.12496 11.5813C4.61561 12.3774 3.35217 13.5704 2.47086 15.0316C1.58954 16.4929 1.12378 18.167 1.12378 19.8734C1.12378 21.5799 1.58954 23.254 2.47086 24.7152C3.35217 26.1765 4.61561 27.3695 6.12496 28.1656C6.15947 29.8219 6.69945 31.4281 7.67253 32.7689C8.64561 34.1096 10.0053 35.1209 11.5693 35.6671C13.1333 36.2133 14.8269 36.2684 16.4231 35.8249C18.0193 35.3815 19.4418 34.4607 20.5 33.1859C21.5581 34.4607 22.9806 35.3815 24.5768 35.8249C26.173 36.2684 27.8666 36.2133 29.4306 35.6671C30.9946 35.1209 32.3543 34.1096 33.3274 32.7689C34.3005 31.4281 34.8405 29.8219 34.875 28.1656C36.3833 27.3688 37.6459 26.1758 38.5269 24.715C39.4079 23.2542 39.8739 21.5809 39.875 19.875ZM14.25 32.375C13.3059 32.3749 12.3873 32.0694 11.6312 31.5042C10.875 30.939 10.322 30.1444 10.0547 29.2391C10.2109 29.2391 10.35 29.25 10.5 29.25H11.75C12.2472 29.25 12.7242 29.0525 13.0758 28.7008C13.4274 28.3492 13.625 27.8723 13.625 27.375C13.625 26.8777 13.4274 26.4008 13.0758 26.0492C12.7242 25.6976 12.2472 25.5 11.75 25.5H10.5C9.17236 25.5009 7.88721 25.0323 6.87188 24.1769C5.85655 23.3215 5.1765 22.1346 4.95202 20.8261C4.72755 19.5176 4.97313 18.1719 5.64531 17.027C6.31749 15.8821 7.37296 15.0119 8.62496 14.5703C8.99069 14.441 9.3073 14.2015 9.53118 13.8847C9.75506 13.5679 9.87517 13.1895 9.87496 12.8016V11.75C9.87496 10.5897 10.3359 9.47689 11.1564 8.65641C11.9768 7.83594 13.0896 7.37501 14.25 7.37501C15.4103 7.37501 16.5231 7.83594 17.3436 8.65641C18.164 9.47689 18.625 10.5897 18.625 11.75V21.1484C18.0213 20.7646 17.3699 20.4615 16.6875 20.2469C16.213 20.0977 15.6987 20.1431 15.2577 20.3731C14.8167 20.6032 14.4851 20.999 14.3359 21.4734C14.1867 21.9479 14.2321 22.4623 14.4622 22.9033C14.6922 23.3443 15.088 23.6758 15.5625 23.825C16.5608 24.1377 17.414 24.7977 17.9674 25.6854C18.5208 26.5732 18.7379 27.6298 18.5791 28.6638C18.4204 29.6978 17.8964 30.6407 17.1022 31.3216C16.308 32.0024 15.2961 32.3762 14.25 32.375ZM30.5 25.5H29.25C28.7527 25.5 28.2758 25.6976 27.9241 26.0492C27.5725 26.4008 27.375 26.8777 27.375 27.375C27.375 27.8723 27.5725 28.3492 27.9241 28.7008C28.2758 29.0525 28.7527 29.25 29.25 29.25H30.5C30.6562 29.25 30.7968 29.25 30.9453 29.2391C30.731 29.9638 30.3327 30.6207 29.7891 31.1458C29.2455 31.6708 28.5751 32.0461 27.8433 32.235C27.1116 32.4239 26.3433 32.42 25.6135 32.2237C24.8837 32.0274 24.2171 31.6454 23.6788 31.115C23.1405 30.5845 22.7488 29.9236 22.5419 29.1967C22.335 28.4698 22.3199 27.7017 22.4981 26.9672C22.6763 26.2328 23.0417 25.557 23.5588 25.0058C24.0758 24.4546 24.7268 24.0467 25.4484 23.8219C25.9233 23.6741 26.3201 23.3438 26.5514 22.9035C26.7828 22.4633 26.8297 21.9491 26.682 21.4742C26.5343 20.9993 26.2039 20.6026 25.7637 20.3712C25.3234 20.1399 24.8092 20.0929 24.3343 20.2406C23.6437 20.4547 22.9848 20.76 22.375 21.1484V11.75C22.375 10.5897 22.8359 9.47689 23.6564 8.65641C24.4768 7.83594 25.5896 7.37501 26.75 7.37501C27.9103 7.37501 29.0231 7.83594 29.8436 8.65641C30.664 9.47689 31.125 10.5897 31.125 11.75V12.8016C31.1248 13.1895 31.2449 13.5679 31.4687 13.8847C31.6926 14.2015 32.0092 14.441 32.375 14.5703C33.6326 15.0079 34.6942 15.8775 35.3709 17.0243C36.0476 18.1712 36.2955 19.5209 36.0705 20.8333C35.8455 22.1457 35.1622 23.3358 34.1422 24.1918C33.1221 25.0477 31.8315 25.5141 30.5 25.5078V25.5ZM33 18.625C33 19.1223 32.8024 19.5992 32.4508 19.9508C32.0992 20.3025 31.6222 20.5 31.125 20.5C29.4674 20.5 27.8776 19.8415 26.7055 18.6694C25.5334 17.4973 24.875 15.9076 24.875 14.25V13.625C24.875 13.1277 25.0725 12.6508 25.4241 12.2992C25.7758 11.9476 26.2527 11.75 26.75 11.75C27.2472 11.75 27.7242 11.9476 28.0758 12.2992C28.4274 12.6508 28.625 13.1277 28.625 13.625V14.25C28.625 14.913 28.8884 15.5489 29.3572 16.0178C29.826 16.4866 30.4619 16.75 31.125 16.75C31.6222 16.75 32.0992 16.9476 32.4508 17.2992C32.8024 17.6508 33 18.1277 33 18.625ZM9.87496 20.5C9.37768 20.5 8.90077 20.3025 8.54914 19.9508C8.19751 19.5992 7.99996 19.1223 7.99996 18.625C7.99996 18.1277 8.19751 17.6508 8.54914 17.2992C8.90077 16.9476 9.37768 16.75 9.87496 16.75C10.538 16.75 11.1739 16.4866 11.6427 16.0178C12.1116 15.5489 12.375 14.913 12.375 14.25V13.625C12.375 13.1277 12.5725 12.6508 12.9241 12.2992C13.2758 11.9476 13.7527 11.75 14.25 11.75C14.7472 11.75 15.2242 11.9476 15.5758 12.2992C15.9274 12.6508 16.125 13.1277 16.125 13.625V14.25C16.125 15.9076 15.4665 17.4973 14.2944 18.6694C13.1223 19.8415 11.5326 20.5 9.87496 20.5Z" fill="#242938"/>
</svg>
