<svg width="64" height="64" viewBox="0 0 64 64" fill="none" xmlns="http://www.w3.org/2000/svg">
<path d="M59 22V23C59 23.7956 58.6839 24.5587 58.1213 25.1213C57.5587 25.6839 56.7956 26 56 26C55.2044 26 54.4413 25.6839 53.8787 25.1213C53.3161 24.5587 53 23.7956 53 23H32.6675C31.586 22.9979 30.534 22.6472 29.6675 22L23 17H11V49H26C26.7956 49 27.5587 49.3161 28.1213 49.8787C28.6839 50.4413 29 51.2044 29 52C29 52.7956 28.6839 53.5587 28.1213 54.1213C27.5587 54.6839 26.7956 55 26 55H10C8.67392 55 7.40215 54.4732 6.46447 53.5355C5.52678 52.5979 5 51.3261 5 50V16C5 14.6739 5.52678 13.4021 6.46447 12.4645C7.40215 11.5268 8.67392 11 10 11H23.3325C24.414 11.0021 25.466 11.3528 26.3325 12L33 17H54C55.3261 17 56.5979 17.5268 57.5355 18.4645C58.4732 19.4021 59 20.6739 59 22ZM59 41V52C59 52.7956 58.6839 53.5587 58.1213 54.1213C57.5587 54.6839 56.7956 55 56 55H38C37.2044 55 36.4413 54.6839 35.8787 54.1213C35.3161 53.5587 35 52.7956 35 52V41C35 40.2044 35.3161 39.4413 35.8787 38.8787C36.4413 38.3161 37.2044 38 38 38H39V37C39 34.8783 39.8429 32.8434 41.3431 31.3431C42.8434 29.8429 44.8783 29 47 29C49.1217 29 51.1566 29.8429 52.6569 31.3431C54.1571 32.8434 55 34.8783 55 37V38H56C56.7956 38 57.5587 38.3161 58.1213 38.8787C58.6839 39.4413 59 40.2044 59 41ZM45 38H49V37C49 36.4696 48.7893 35.9609 48.4142 35.5858C48.0391 35.2107 47.5304 35 47 35C46.4696 35 45.9609 35.2107 45.5858 35.5858C45.2107 35.9609 45 36.4696 45 37V38ZM53 44H41V49H53V44Z" fill="white"/>
</svg>
