<svg width="64" height="64" viewBox="0 0 64 64" fill="none" xmlns="http://www.w3.org/2000/svg">
<path d="M6 27H11V39H8C7.20435 39 6.44129 39.3161 5.87868 39.8787C5.31607 40.4413 5 41.2044 5 42C5 42.7956 5.31607 43.5587 5.87868 44.1213C6.44129 44.6839 7.20435 45 8 45H56C56.7956 45 57.5587 44.6839 58.1213 44.1213C58.6839 43.5587 59 42.7956 59 42C59 41.2044 58.6839 40.4413 58.1213 39.8787C57.5587 39.3161 56.7956 39 56 39H53V27H58C58.6532 27.0001 59.2886 26.7869 59.8097 26.3929C60.3307 25.9989 60.7089 25.4457 60.8868 24.8171C61.0647 24.1886 61.0327 23.5192 60.7954 22.9105C60.5582 22.3019 60.1288 21.7873 59.5725 21.445L33.5725 5.445C33.0996 5.15395 32.5553 4.99985 32 4.99985C31.4447 4.99985 30.9004 5.15395 30.4275 5.445L4.4275 21.445C3.87117 21.7873 3.44178 22.3019 3.20456 22.9105C2.96734 23.5192 2.93526 24.1886 3.11318 24.8171C3.2911 25.4457 3.66931 25.9989 4.19034 26.3929C4.71138 26.7869 5.34678 27.0001 6 27ZM17 27H23V39H17V27ZM35 27V39H29V27H35ZM47 39H41V27H47V39ZM32 11.5225L47.4 21H16.6L32 11.5225ZM63 52C63 52.7956 62.6839 53.5587 62.1213 54.1213C61.5587 54.6839 60.7956 55 60 55H4C3.20435 55 2.44129 54.6839 1.87868 54.1213C1.31607 53.5587 1 52.7956 1 52C1 51.2044 1.31607 50.4413 1.87868 49.8787C2.44129 49.3161 3.20435 49 4 49H60C60.7956 49 61.5587 49.3161 62.1213 49.8787C62.6839 50.4413 63 51.2044 63 52Z" fill="white"/>
</svg>
