<svg width="64" height="64" viewBox="0 0 64 64" fill="none" xmlns="http://www.w3.org/2000/svg">
<path d="M58 15H53V14C53 12.6739 52.4732 11.4021 51.5355 10.4645C50.5979 9.52678 49.3261 9 48 9H16C14.6739 9 13.4021 9.52678 12.4645 10.4645C11.5268 11.4021 11 12.6739 11 14V15H6C5.34339 15 4.69321 15.1293 4.08658 15.3806C3.47995 15.6319 2.92876 16.0002 2.46447 16.4645C1.52678 17.4021 1 18.6739 1 20V24C1.00331 26.9164 2.1633 29.7123 4.22548 31.7745C6.28766 33.8367 9.08363 34.9967 12 35H12.1925C13.4738 38.6103 15.7163 41.8023 18.6782 44.232C21.64 46.6617 25.2089 48.2368 29 48.7875V53H24C23.2044 53 22.4413 53.3161 21.8787 53.8787C21.3161 54.4413 21 55.2044 21 56C21 56.7956 21.3161 57.5587 21.8787 58.1213C22.4413 58.6839 23.2044 59 24 59H40C40.7956 59 41.5587 58.6839 42.1213 58.1213C42.6839 57.5587 43 56.7956 43 56C43 55.2044 42.6839 54.4413 42.1213 53.8787C41.5587 53.3161 40.7956 53 40 53H35V48.7775C42.735 47.65 49.1325 42.2275 51.75 35H52C54.9164 34.9967 57.7123 33.8367 59.7745 31.7745C61.8367 29.7123 62.9967 26.9164 63 24V20C63 18.6739 62.4732 17.4021 61.5355 16.4645C60.5979 15.5268 59.3261 15 58 15ZM7 24V21H11V28C11 28.3025 11 28.6025 11.0225 28.9025C9.88857 28.6765 8.86803 28.0644 8.13461 27.1705C7.40119 26.2767 7.00024 25.1562 7 24ZM47 27.775C47 36.1075 40.3225 42.9375 32.115 43C30.1355 43.0152 28.1726 42.6384 26.3394 41.8914C24.5062 41.1443 22.8391 40.0419 21.434 38.6475C20.0289 37.2531 18.9137 35.5944 18.1527 33.7669C17.3917 31.9395 16.9999 29.9795 17 28V15H47V27.775ZM57 24C57 25.1577 56.5982 26.2796 55.8633 27.1741C55.1283 28.0686 54.1057 28.6804 52.97 28.905C52.99 28.53 53 28.155 53 27.775V21H57V24Z" fill="white"/>
</svg>
