<svg width="53" height="53" viewBox="0 0 53 53" fill="none" xmlns="http://www.w3.org/2000/svg">
<path d="M40.5781 0H12.4219C5.56146 0 0 5.56146 0 12.4219V40.5781C0 47.4385 5.56146 53 12.4219 53H40.5781C47.4385 53 53 47.4385 53 40.5781V12.4219C53 5.56146 47.4385 0 40.5781 0Z" fill="#023430"/>
<path d="M35.4381 22.2747C33.2566 12.6517 28.7102 10.0899 27.5504 8.27897C27.0721 7.48122 26.6485 6.65195 26.2824 5.79688C26.2211 6.65191 26.1085 7.1902 25.3818 7.83862C23.9228 9.13939 17.7264 14.1889 17.2049 25.1228C16.719 35.3175 24.6994 41.6036 25.7536 42.2534C26.5644 42.6524 27.5517 42.2619 28.0334 41.8957C31.8803 39.2556 37.1364 32.217 35.4423 22.2747" fill="#10AA50"/>
<path d="M26.6129 36.8249C26.4121 39.3482 26.2682 40.8144 25.7581 42.2563C25.7581 42.2563 26.0928 44.6585 26.328 47.2031H27.1601C27.3585 45.4112 27.6616 43.6324 28.0677 41.8758C26.9905 41.3458 26.6543 39.0391 26.6129 36.8249Z" fill="#B8C4C2"/>
<path d="M28.0663 41.8772C26.9777 41.3744 26.6628 39.019 26.6144 36.8249C26.8835 33.2053 26.962 29.5742 26.8495 25.9464C26.7924 24.043 26.8765 8.31603 26.3806 6.01343C26.7198 6.79329 27.1107 7.54966 27.5506 8.27752C28.7103 10.0899 33.2582 12.6517 35.4382 22.2747C37.1365 32.2 31.909 39.22 28.0663 41.8772Z" fill="#12924F"/>
</svg>
