<svg width="53" height="53" viewBox="0 0 53 53" fill="none" xmlns="http://www.w3.org/2000/svg">
<path d="M40.5781 0H12.4219C5.56146 0 0 5.56146 0 12.4219V40.5781C0 47.4385 5.56146 53 12.4219 53H40.5781C47.4385 53 53 47.4385 53 40.5781V12.4219C53 5.56146 47.4385 0 40.5781 0Z" fill="#E14E1D"/>
<path d="M9.9375 7.86719L11.72 27.865H34.6405L33.8713 36.4423L26.4915 38.4376L19.1255 36.4452L18.633 30.9377H11.9954L12.9446 41.5545L26.4901 45.3167L40.0527 41.5545L41.871 21.2528H17.7682L17.1631 14.4808H42.4702L43.0625 7.86719H9.9375Z" fill="white"/>
<path d="M26.5 7.86719H9.9375L11.72 27.865H26.5V21.2528H17.7682L17.1631 14.4808H26.5V7.86719ZM26.5 38.4347L26.4915 38.4376L19.1255 36.4452L18.633 30.9377H11.9954L12.9446 41.5545L26.4901 45.3167L26.5002 45.3138V38.4347H26.5Z" fill="#EBEBEB"/>
</svg>
