<svg width="176" height="111" viewBox="0 0 176 111" fill="none" xmlns="http://www.w3.org/2000/svg">
<path d="M37.816 64L30.712 56.896V37.696L37.816 30.528H49.784L54.648 35.072V16.832H64.504V64H54.648V59.52L49.784 64H37.816ZM48.376 57.6L54.648 51.712V42.816L48.44 36.992L42.552 36.928L40.376 39.232V55.36L42.552 57.6H48.376ZM79.816 64L72.712 56.896V37.696L79.816 30.592H96.84L104.008 37.696V50.24H82.568V54.08L85.128 56.64L103.432 56.576V64H79.816ZM82.504 43.776H94.664V39.424L92.104 36.864L85.128 36.928L82.504 39.424V43.776ZM120.753 64L107.633 30.592H118.769L126.257 55.68H128.241L135.729 30.592H146.865L133.745 64H120.753Z" fill="black"/>
<path d="M7.872 102.184C7.104 101.832 6.272 101.304 5.376 100.6C4.512 99.896 3.792 99.064 3.216 98.104C1.872 95.8 1.2 92.792 1.2 89.08C1.2 86.776 1.568 84.728 2.304 82.936C3.04 81.112 3.936 79.704 4.992 78.712C6.048 77.72 7.264 76.904 8.64 76.264C10.848 75.24 13.056 74.728 15.264 74.728C18.976 74.728 21.552 75.016 22.992 75.592C24.464 76.168 25.2 77.144 25.2 78.52C25.2 79.896 24.944 81.368 24.432 82.936C23.952 84.472 23.312 85.24 22.512 85.24C22.256 85.24 21.472 84.968 20.16 84.424C18.88 83.88 17.76 83.608 16.8 83.608C15.872 83.608 15.152 83.992 14.64 84.76C14.16 85.496 13.92 86.952 13.92 89.128C13.92 91.272 14.144 92.744 14.592 93.544C15.04 94.312 15.728 94.696 16.656 94.696C17.616 94.696 18.8 94.376 20.208 93.736C21.616 93.096 22.4 92.776 22.56 92.776C23.168 92.776 23.744 93.496 24.288 94.936C24.864 96.376 25.152 97.656 25.152 98.776C25.152 100.504 24.256 101.72 22.464 102.424C20.672 103.096 18.24 103.432 15.168 103.432C12.128 103.432 9.696 103.016 7.872 102.184ZM41.0306 67.768V101.848C41.0306 102.2 40.1186 102.488 38.2946 102.712C36.4706 102.904 34.5826 103 32.6306 103C30.7106 103 29.4626 102.92 28.8866 102.76C28.3426 102.568 28.0706 102.264 28.0706 101.848V68.632C28.0706 67.928 28.9666 67.24 30.7586 66.568C32.5826 65.896 34.5346 65.56 36.6146 65.56C39.5586 65.56 41.0306 66.296 41.0306 67.768ZM57.5831 78.184V101.848C57.5831 102.2 56.6551 102.488 54.7991 102.712C52.9751 102.904 51.0871 103 49.1351 103C47.2151 103 45.9671 102.92 45.3911 102.76C44.8471 102.568 44.5751 102.264 44.5751 101.848V79.048C44.5751 78.344 45.4711 77.656 47.2631 76.984C49.0871 76.28 51.0711 75.928 53.2151 75.928C56.1271 75.928 57.5831 76.68 57.5831 78.184ZM51.0551 65.56C53.1671 65.56 54.8151 65.88 55.9991 66.52C57.2151 67.128 57.8231 68.248 57.8231 69.88C57.8231 72.76 55.5831 74.2 51.1031 74.2C46.6231 74.2 44.3831 72.76 44.3831 69.88C44.3831 67 46.6071 65.56 51.0551 65.56ZM67.3564 102.184C66.5884 101.832 65.7564 101.304 64.8604 100.6C63.9964 99.896 63.2764 99.064 62.7004 98.104C61.3564 95.8 60.6844 92.792 60.6844 89.08C60.6844 86.776 61.0524 84.728 61.7884 82.936C62.5244 81.112 63.4204 79.704 64.4764 78.712C65.5324 77.72 66.7484 76.904 68.1244 76.264C70.3324 75.24 72.5404 74.728 74.7484 74.728C78.4604 74.728 81.0364 75.016 82.4764 75.592C83.9484 76.168 84.6844 77.144 84.6844 78.52C84.6844 79.896 84.4284 81.368 83.9164 82.936C83.4364 84.472 82.7964 85.24 81.9964 85.24C81.7404 85.24 80.9564 84.968 79.6444 84.424C78.3644 83.88 77.2444 83.608 76.2844 83.608C75.3564 83.608 74.6364 83.992 74.1244 84.76C73.6444 85.496 73.4044 86.952 73.4044 89.128C73.4044 91.272 73.6284 92.744 74.0764 93.544C74.5244 94.312 75.2124 94.696 76.1404 94.696C77.1004 94.696 78.2844 94.376 79.6924 93.736C81.1004 93.096 81.8844 92.776 82.0444 92.776C82.6524 92.776 83.2284 93.496 83.7724 94.936C84.3484 96.376 84.6364 97.656 84.6364 98.776C84.6364 100.504 83.7404 101.72 81.9484 102.424C80.1564 103.096 77.7244 103.432 74.6524 103.432C71.6124 103.432 69.1804 103.016 67.3564 102.184ZM100.515 101.848C100.515 102.2 99.619 102.488 97.827 102.712C96.035 102.904 94.163 103 92.211 103C90.259 103 88.995 102.92 88.419 102.76C87.843 102.568 87.555 102.264 87.555 101.848V68.632C87.555 67.928 88.451 67.24 90.243 66.568C92.067 65.896 94.019 65.56 96.099 65.56C99.043 65.56 100.515 66.296 100.515 67.768V85.72H101.139C102.675 78.392 103.811 74.728 104.547 74.728C106.403 74.728 108.643 75.16 111.267 76.024C113.891 76.888 115.203 77.848 115.203 78.904C115.203 79.672 114.563 81.144 113.283 83.32C112.003 85.496 110.675 87.272 109.299 88.648C113.875 94.12 116.163 97.368 116.163 98.392C116.163 99.352 114.707 100.52 111.795 101.896C108.883 103.272 106.835 103.96 105.651 103.96C105.075 103.96 104.467 103.272 103.827 101.896C103.187 100.488 102.499 98.392 101.763 95.608L100.515 97.096V101.848ZM130.695 92.152C130.695 94.232 131.687 95.272 133.671 95.272C134.823 95.272 136.327 94.888 138.183 94.12C140.039 93.32 141.015 92.92 141.111 92.92C141.719 92.92 142.519 93.832 143.511 95.656C144.503 97.48 144.999 98.824 144.999 99.688C144.999 100.936 143.719 101.88 141.159 102.52C138.599 103.16 136.087 103.48 133.623 103.48C131.191 103.48 129.143 103.288 127.479 102.904C125.847 102.52 124.503 102.04 123.447 101.464C122.423 100.856 121.511 100.12 120.711 99.256C119.943 98.392 119.367 97.576 118.983 96.808C118.599 96.008 118.295 95.128 118.071 94.168C117.751 92.76 117.591 91.304 117.591 89.8C117.591 83.976 119.111 79.96 122.151 77.752C123.655 76.632 125.335 75.848 127.191 75.4C129.047 74.952 131.239 74.728 133.767 74.728C141.863 74.728 145.911 77.544 145.911 83.176C145.911 89.16 141.367 92.152 132.279 92.152H130.695ZM130.599 85.144V88.312C131.527 88.312 132.279 87.944 132.855 87.208C133.463 86.472 133.767 85.576 133.767 84.52C133.767 82.6 133.271 81.64 132.279 81.64C131.159 81.64 130.599 82.808 130.599 85.144ZM161.734 87.832V101.848C161.734 102.2 160.822 102.488 158.998 102.712C157.206 102.904 155.334 103 153.382 103C151.462 103 150.214 102.92 149.638 102.76C149.062 102.568 148.774 102.264 148.774 101.848V78.184C148.774 77.576 149.654 76.92 151.414 76.216C153.206 75.512 155.142 75.16 157.222 75.16C159.334 75.16 160.518 75.736 160.774 76.888L161.254 79.096H161.59C162.038 77.88 163.11 76.856 164.806 76.024C166.502 75.16 168.198 74.728 169.894 74.728C171.59 74.728 172.774 75 173.446 75.544C174.15 76.088 174.502 76.792 174.502 77.656C174.502 78.488 174.438 79.56 174.31 80.872C174.182 82.184 173.862 83.608 173.35 85.144C172.87 86.68 172.23 87.448 171.43 87.448C171.11 87.448 170.102 87.208 168.406 86.728C166.71 86.248 165.302 86.008 164.182 86.008C163.094 86.008 162.406 86.168 162.118 86.488C161.862 86.808 161.734 87.256 161.734 87.832Z" fill="#532EE7"/>
</svg>
