<svg width="119" height="119" viewBox="0 0 119 119" fill="none" xmlns="http://www.w3.org/2000/svg">
<g clip-path="url(#clip0_57_260)">
<path d="M114.24 0H4.76C2.13112 0 0 2.13112 0 4.76V114.24C0 116.869 2.13112 119 4.76 119H114.24C116.869 119 119 116.869 119 114.24V4.76C119 2.13112 116.869 0 114.24 0Z" fill="#E9EAFF"/>
<path d="M29.6406 60.095L25.4137 55.8681V44.4441L29.6406 40.1791H36.7615L39.6556 42.8828V32.03H45.5199V60.095H39.6556V57.4294L36.7615 60.095H29.6406ZM35.9238 56.287L39.6556 52.7836V47.4905L35.9619 44.0252L32.4585 43.9871L31.1638 45.358V54.9542L32.4585 56.287H35.9238ZM54.6306 60.095L50.4037 55.8681V44.4441L54.6306 40.2172H64.7598L69.0248 44.4441V51.9078H56.268V54.1926L57.7912 55.7158L68.6821 55.6777V60.095H54.6306ZM56.2299 48.0617H63.4651V45.4723L61.9419 43.9491L57.7912 43.9871L56.2299 45.4723V48.0617ZM78.9881 60.095L71.1817 40.2172H77.8076L82.263 55.1446H83.4434L87.8988 40.2172H94.5247L86.7183 60.095H78.9881Z" fill="#242938"/>
<path d="M11.8238 82.8145C11.3669 82.605 10.8718 82.2909 10.3387 81.872C9.82464 81.4531 9.39624 80.9581 9.05352 80.3869C8.25384 79.016 7.854 77.2262 7.854 75.0176C7.854 73.6467 8.07296 72.4282 8.51088 71.3619C8.9488 70.2766 9.48192 69.4389 10.1102 68.8486C10.7386 68.2584 11.4621 67.7729 12.2808 67.3921C13.5946 66.7828 14.9083 66.4782 16.2221 66.4782C18.4307 66.4782 19.9634 66.6495 20.8202 66.9922C21.6961 67.335 22.134 67.9157 22.134 68.7344C22.134 69.5531 21.9817 70.429 21.677 71.3619C21.3914 72.2758 21.0106 72.7328 20.5346 72.7328C20.3823 72.7328 19.9158 72.571 19.1352 72.2473C18.3736 71.9236 17.7072 71.7618 17.136 71.7618C16.5838 71.7618 16.1554 71.9902 15.8508 72.4472C15.5652 72.8851 15.4224 73.7514 15.4224 75.0462C15.4224 76.3218 15.5557 77.1977 15.8222 77.6737C16.0888 78.1306 16.4982 78.3591 17.0503 78.3591C17.6215 78.3591 18.326 78.1687 19.1638 77.7879C20.0015 77.4071 20.468 77.2167 20.5632 77.2167C20.925 77.2167 21.2677 77.6451 21.5914 78.5019C21.9341 79.3587 22.1054 80.1203 22.1054 80.7867C22.1054 81.8149 21.5723 82.5384 20.5061 82.9573C19.4398 83.3571 17.9928 83.557 16.165 83.557C14.3562 83.557 12.9091 83.3095 11.8238 82.8145ZM31.5532 62.337V82.6146C31.5532 82.824 31.0106 82.9954 29.9253 83.1286C28.84 83.2429 27.7167 83.3 26.5552 83.3C25.4128 83.3 24.6703 83.2524 24.3275 83.1572C24.0039 83.043 23.842 82.8621 23.842 82.6146V62.851C23.842 62.4322 24.3751 62.0228 25.4414 61.623C26.5267 61.2231 27.6881 61.0232 28.9257 61.0232C30.6774 61.0232 31.5532 61.4611 31.5532 62.337ZM41.4019 68.5345V82.6146C41.4019 82.824 40.8498 82.9954 39.7455 83.1286C38.6602 83.2429 37.5368 83.3 36.3754 83.3C35.233 83.3 34.4904 83.2524 34.1477 83.1572C33.824 83.043 33.6622 82.8621 33.6622 82.6146V69.0486C33.6622 68.6297 34.1953 68.2203 35.2615 67.8205C36.3468 67.4016 37.5273 67.1922 38.803 67.1922C40.5356 67.1922 41.4019 67.6396 41.4019 68.5345ZM37.5178 61.0232C38.7744 61.0232 39.755 61.2136 40.4595 61.5944C41.183 61.9562 41.5447 62.6226 41.5447 63.5936C41.5447 65.3072 40.2119 66.164 37.5463 66.164C34.8807 66.164 33.5479 65.3072 33.5479 63.5936C33.5479 61.88 34.8712 61.0232 37.5178 61.0232ZM47.2171 82.8145C46.7601 82.605 46.2651 82.2909 45.7319 81.872C45.2179 81.4531 44.7895 80.9581 44.4467 80.3869C43.6471 79.016 43.2472 77.2262 43.2472 75.0176C43.2472 73.6467 43.4662 72.4282 43.9041 71.3619C44.342 70.2766 44.8751 69.4389 45.5035 68.8486C46.1318 68.2584 46.8553 67.7729 47.674 67.3921C48.9878 66.7828 50.3015 66.4782 51.6153 66.4782C53.8239 66.4782 55.3567 66.6495 56.2135 66.9922C57.0893 67.335 57.5272 67.9157 57.5272 68.7344C57.5272 69.5531 57.3749 70.429 57.0703 71.3619C56.7847 72.2758 56.4039 72.7328 55.9279 72.7328C55.7755 72.7328 55.3091 72.571 54.5284 72.2473C53.7668 71.9236 53.1004 71.7618 52.5292 71.7618C51.9771 71.7618 51.5487 71.9902 51.244 72.4472C50.9584 72.8851 50.8156 73.7514 50.8156 75.0462C50.8156 76.3218 50.9489 77.1977 51.2155 77.6737C51.482 78.1306 51.8914 78.3591 52.4435 78.3591C53.0147 78.3591 53.7192 78.1687 54.557 77.7879C55.3947 77.4071 55.8612 77.2167 55.9564 77.2167C56.3182 77.2167 56.6609 77.6451 56.9846 78.5019C57.3273 79.3587 57.4987 80.1203 57.4987 80.7867C57.4987 81.8149 56.9655 82.5384 55.8993 82.9573C54.8331 83.3571 53.386 83.557 51.5582 83.557C49.7494 83.557 48.3023 83.3095 47.2171 82.8145ZM66.9464 82.6146C66.9464 82.824 66.4133 82.9954 65.3471 83.1286C64.2808 83.2429 63.167 83.3 62.0056 83.3C60.8441 83.3 60.092 83.2524 59.7493 83.1572C59.4066 83.043 59.2352 82.8621 59.2352 82.6146V62.851C59.2352 62.4322 59.7684 62.0228 60.8346 61.623C61.9199 61.2231 63.0813 61.0232 64.3189 61.0232C66.0706 61.0232 66.9464 61.4611 66.9464 62.337V73.0184H67.3177C68.2316 68.6582 68.9076 66.4782 69.3455 66.4782C70.4498 66.4782 71.7826 66.7352 73.3439 67.2493C74.9052 67.7634 75.6858 68.3346 75.6858 68.9629C75.6858 69.4198 75.305 70.2957 74.5434 71.5904C73.7818 72.8851 72.9916 73.9418 72.1729 74.7606C74.8956 78.0164 76.257 79.949 76.257 80.5582C76.257 81.1294 75.3907 81.8244 73.658 82.6431C71.9254 83.4618 70.7068 83.8712 70.0024 83.8712C69.6596 83.8712 69.2979 83.4618 68.9171 82.6431C68.5363 81.8054 68.1269 80.5582 67.689 78.9018L66.9464 79.7871V82.6146ZM84.9035 76.8454C84.9035 78.083 85.4938 78.7018 86.6743 78.7018C87.3597 78.7018 88.2546 78.4734 89.3589 78.0164C90.4632 77.5404 91.0439 77.3024 91.1011 77.3024C91.4628 77.3024 91.9388 77.845 92.5291 78.9303C93.1193 80.0156 93.4144 80.8153 93.4144 81.3294C93.4144 82.0719 92.6528 82.6336 91.1296 83.0144C89.6064 83.3952 88.1118 83.5856 86.6457 83.5856C85.1987 83.5856 83.9801 83.4714 82.99 83.2429C82.019 83.0144 81.2193 82.7288 80.591 82.3861C79.9817 82.0243 79.4391 81.5864 78.9631 81.0723C78.5061 80.5582 78.1634 80.0727 77.9349 79.6158C77.7064 79.1398 77.5255 78.6162 77.3923 78.045C77.2019 77.2072 77.1067 76.3409 77.1067 75.446C77.1067 71.9807 78.0111 69.5912 79.8199 68.2774C80.7147 67.611 81.7143 67.1446 82.8187 66.878C83.923 66.6114 85.2272 66.4782 86.7314 66.4782C91.5485 66.4782 93.9571 68.1537 93.9571 71.5047C93.9571 75.0652 91.2534 76.8454 85.846 76.8454H84.9035ZM84.8464 72.6757V74.5606C85.3986 74.5606 85.846 74.3417 86.1887 73.9038C86.5505 73.4658 86.7314 72.9327 86.7314 72.3044C86.7314 71.162 86.4363 70.5908 85.846 70.5908C85.1796 70.5908 84.8464 71.2858 84.8464 72.6757ZM103.372 74.275V82.6146C103.372 82.824 102.829 82.9954 101.744 83.1286C100.678 83.2429 99.5637 83.3 98.4023 83.3C97.2599 83.3 96.5173 83.2524 96.1746 83.1572C95.8319 83.043 95.6605 82.8621 95.6605 82.6146V68.5345C95.6605 68.1727 96.1841 67.7824 97.2313 67.3635C98.2976 66.9446 99.4495 66.7352 100.687 66.7352C101.944 66.7352 102.648 67.0779 102.801 67.7634L103.086 69.0771H103.286C103.553 68.3536 104.19 67.7443 105.2 67.2493C106.209 66.7352 107.218 66.4782 108.227 66.4782C109.236 66.4782 109.941 66.64 110.34 66.9637C110.759 67.2874 110.969 67.7062 110.969 68.2203C110.969 68.7154 110.931 69.3532 110.854 70.1338C110.778 70.9145 110.588 71.7618 110.283 72.6757C109.998 73.5896 109.617 74.0466 109.141 74.0466C108.95 74.0466 108.351 73.9038 107.342 73.6182C106.332 73.3326 105.495 73.1898 104.828 73.1898C104.181 73.1898 103.772 73.285 103.6 73.4754C103.448 73.6658 103.372 73.9323 103.372 74.275Z" fill="#532EE7"/>
</g>
<defs>
<clipPath id="clip0_57_260">
<rect width="119" height="119" rx="8" fill="white"/>
</clipPath>
</defs>
</svg>
