<svg width="296" height="77" viewBox="0 0 296 77" fill="none" xmlns="http://www.w3.org/2000/svg">
<path d="M10.816 64L3.712 56.896V37.696L10.816 30.528H22.784L27.648 35.072V16.832H37.504V64H27.648V59.52L22.784 64H10.816ZM21.376 57.6L27.648 51.712V42.816L21.44 36.992L15.552 36.928L13.376 39.232V55.36L15.552 57.6H21.376ZM52.816 64L45.712 56.896V37.696L52.816 30.592H69.84L77.008 37.696V50.24H55.568V54.08L58.128 56.64L76.432 56.576V64H52.816ZM55.504 43.776H67.664V39.424L65.104 36.864L58.128 36.928L55.504 39.424V43.776ZM93.7525 64L80.6325 30.592H91.7685L99.2565 55.68H101.241L108.729 30.592H119.865L106.745 64H93.7525Z" fill="#E9EAFF"/>
<path d="M127.872 59.184C127.104 58.832 126.272 58.304 125.376 57.6C124.512 56.896 123.792 56.064 123.216 55.104C121.872 52.8 121.2 49.792 121.2 46.08C121.2 43.776 121.568 41.728 122.304 39.936C123.04 38.112 123.936 36.704 124.992 35.712C126.048 34.72 127.264 33.904 128.64 33.264C130.848 32.24 133.056 31.728 135.264 31.728C138.976 31.728 141.552 32.016 142.992 32.592C144.464 33.168 145.2 34.144 145.2 35.52C145.2 36.896 144.944 38.368 144.432 39.936C143.952 41.472 143.312 42.24 142.512 42.24C142.256 42.24 141.472 41.968 140.16 41.424C138.88 40.88 137.76 40.608 136.8 40.608C135.872 40.608 135.152 40.992 134.64 41.76C134.16 42.496 133.92 43.952 133.92 46.128C133.92 48.272 134.144 49.744 134.592 50.544C135.04 51.312 135.728 51.696 136.656 51.696C137.616 51.696 138.8 51.376 140.208 50.736C141.616 50.096 142.4 49.776 142.56 49.776C143.168 49.776 143.744 50.496 144.288 51.936C144.864 53.376 145.152 54.656 145.152 55.776C145.152 57.504 144.256 58.72 142.464 59.424C140.672 60.096 138.24 60.432 135.168 60.432C132.128 60.432 129.696 60.016 127.872 59.184ZM161.031 24.768V58.848C161.031 59.2 160.119 59.488 158.295 59.712C156.471 59.904 154.583 60 152.631 60C150.711 60 149.463 59.92 148.887 59.76C148.343 59.568 148.071 59.264 148.071 58.848V25.632C148.071 24.928 148.967 24.24 150.759 23.568C152.583 22.896 154.535 22.56 156.615 22.56C159.559 22.56 161.031 23.296 161.031 24.768ZM177.583 35.184V58.848C177.583 59.2 176.655 59.488 174.799 59.712C172.975 59.904 171.087 60 169.135 60C167.215 60 165.967 59.92 165.391 59.76C164.847 59.568 164.575 59.264 164.575 58.848V36.048C164.575 35.344 165.471 34.656 167.263 33.984C169.087 33.28 171.071 32.928 173.215 32.928C176.127 32.928 177.583 33.68 177.583 35.184ZM171.055 22.56C173.167 22.56 174.815 22.88 175.999 23.52C177.215 24.128 177.823 25.248 177.823 26.88C177.823 29.76 175.583 31.2 171.103 31.2C166.623 31.2 164.383 29.76 164.383 26.88C164.383 24 166.607 22.56 171.055 22.56ZM187.356 59.184C186.588 58.832 185.756 58.304 184.86 57.6C183.996 56.896 183.276 56.064 182.7 55.104C181.356 52.8 180.684 49.792 180.684 46.08C180.684 43.776 181.052 41.728 181.788 39.936C182.524 38.112 183.42 36.704 184.476 35.712C185.532 34.72 186.748 33.904 188.124 33.264C190.332 32.24 192.54 31.728 194.748 31.728C198.46 31.728 201.036 32.016 202.476 32.592C203.948 33.168 204.684 34.144 204.684 35.52C204.684 36.896 204.428 38.368 203.916 39.936C203.436 41.472 202.796 42.24 201.996 42.24C201.74 42.24 200.956 41.968 199.644 41.424C198.364 40.88 197.244 40.608 196.284 40.608C195.356 40.608 194.636 40.992 194.124 41.76C193.644 42.496 193.404 43.952 193.404 46.128C193.404 48.272 193.628 49.744 194.076 50.544C194.524 51.312 195.212 51.696 196.14 51.696C197.1 51.696 198.284 51.376 199.692 50.736C201.1 50.096 201.884 49.776 202.044 49.776C202.652 49.776 203.228 50.496 203.772 51.936C204.348 53.376 204.636 54.656 204.636 55.776C204.636 57.504 203.74 58.72 201.948 59.424C200.156 60.096 197.724 60.432 194.652 60.432C191.612 60.432 189.18 60.016 187.356 59.184ZM220.515 58.848C220.515 59.2 219.619 59.488 217.827 59.712C216.035 59.904 214.163 60 212.211 60C210.259 60 208.995 59.92 208.419 59.76C207.843 59.568 207.555 59.264 207.555 58.848V25.632C207.555 24.928 208.451 24.24 210.243 23.568C212.067 22.896 214.019 22.56 216.099 22.56C219.043 22.56 220.515 23.296 220.515 24.768V42.72H221.139C222.675 35.392 223.811 31.728 224.547 31.728C226.403 31.728 228.643 32.16 231.267 33.024C233.891 33.888 235.203 34.848 235.203 35.904C235.203 36.672 234.563 38.144 233.283 40.32C232.003 42.496 230.675 44.272 229.299 45.648C233.875 51.12 236.163 54.368 236.163 55.392C236.163 56.352 234.707 57.52 231.795 58.896C228.883 60.272 226.835 60.96 225.651 60.96C225.075 60.96 224.467 60.272 223.827 58.896C223.187 57.488 222.499 55.392 221.763 52.608L220.515 54.096V58.848ZM250.695 49.152C250.695 51.232 251.687 52.272 253.671 52.272C254.823 52.272 256.327 51.888 258.183 51.12C260.039 50.32 261.015 49.92 261.111 49.92C261.719 49.92 262.519 50.832 263.511 52.656C264.503 54.48 264.999 55.824 264.999 56.688C264.999 57.936 263.719 58.88 261.159 59.52C258.599 60.16 256.087 60.48 253.623 60.48C251.191 60.48 249.143 60.288 247.479 59.904C245.847 59.52 244.503 59.04 243.447 58.464C242.423 57.856 241.511 57.12 240.711 56.256C239.943 55.392 239.367 54.576 238.983 53.808C238.599 53.008 238.295 52.128 238.071 51.168C237.751 49.76 237.591 48.304 237.591 46.8C237.591 40.976 239.111 36.96 242.151 34.752C243.655 33.632 245.335 32.848 247.191 32.4C249.047 31.952 251.239 31.728 253.767 31.728C261.863 31.728 265.911 34.544 265.911 40.176C265.911 46.16 261.367 49.152 252.279 49.152H250.695ZM250.599 42.144V45.312C251.527 45.312 252.279 44.944 252.855 44.208C253.463 43.472 253.767 42.576 253.767 41.52C253.767 39.6 253.271 38.64 252.279 38.64C251.159 38.64 250.599 39.808 250.599 42.144ZM281.734 44.832V58.848C281.734 59.2 280.822 59.488 278.998 59.712C277.206 59.904 275.334 60 273.382 60C271.462 60 270.214 59.92 269.638 59.76C269.062 59.568 268.774 59.264 268.774 58.848V35.184C268.774 34.576 269.654 33.92 271.414 33.216C273.206 32.512 275.142 32.16 277.222 32.16C279.334 32.16 280.518 32.736 280.774 33.888L281.254 36.096H281.59C282.038 34.88 283.11 33.856 284.806 33.024C286.502 32.16 288.198 31.728 289.894 31.728C291.59 31.728 292.774 32 293.446 32.544C294.15 33.088 294.502 33.792 294.502 34.656C294.502 35.488 294.438 36.56 294.31 37.872C294.182 39.184 293.862 40.608 293.35 42.144C292.87 43.68 292.23 44.448 291.43 44.448C291.11 44.448 290.102 44.208 288.406 43.728C286.71 43.248 285.302 43.008 284.182 43.008C283.094 43.008 282.406 43.168 282.118 43.488C281.862 43.808 281.734 44.256 281.734 44.832Z" fill="#532EE7"/>
</svg>
