<svg width="53" height="53" viewBox="0 0 53 53" fill="none" xmlns="http://www.w3.org/2000/svg">
<path d="M40.5781 0H12.4219C5.56146 0 0 5.56146 0 12.4219V40.5781C0 47.4385 5.56146 53 12.4219 53H40.5781C47.4385 53 53 47.4385 53 40.5781V12.4219C53 5.56146 47.4385 0 40.5781 0Z" fill="#677EEB"/>
<path fill-rule="evenodd" clip-rule="evenodd" d="M10.9018 34.198C10.7072 33.8911 10.6027 33.5358 10.5999 33.1725C10.5972 32.8091 10.6964 32.4522 10.8863 32.1424L25.4739 8.3475C26.2852 7.02395 28.2444 7.13968 28.8943 8.54936L42.2206 37.4573C42.715 38.53 42.1459 39.792 41.0145 40.1316L20.2844 46.3506C19.8785 46.4723 19.444 46.458 19.047 46.3099C18.6499 46.1617 18.3122 45.8878 18.0854 45.5299L10.9018 34.198ZM27.1568 15.305C27.2974 14.6048 28.2566 14.5038 28.5398 15.1594L37.7322 36.4298C37.7731 36.5243 37.7934 36.6263 37.792 36.7293C37.7905 36.8322 37.7673 36.9336 37.7238 37.0269C37.6803 37.1201 37.6175 37.2031 37.5396 37.2704C37.4617 37.3376 37.3704 37.3876 37.2718 37.417L22.9489 41.6926C22.4225 41.8497 21.9181 41.3897 22.0264 40.851L27.1568 15.305Z" fill="#F7FAFC"/>
</svg>
