<svg width="53" height="53" viewBox="0 0 53 53" fill="none" xmlns="http://www.w3.org/2000/svg">
<path d="M40.5781 0H12.4219C5.56146 0 0 5.56146 0 12.4219V40.5781C0 47.4385 5.56146 53 12.4219 53H40.5781C47.4385 53 53 47.4385 53 40.5781V12.4219C53 5.56146 47.4385 0 40.5781 0Z" fill="#242938"/>
<path fill-rule="evenodd" clip-rule="evenodd" d="M17.1836 22.7734C18.4258 17.8047 21.5315 15.3203 26.5 15.3203C33.9531 15.3203 34.8848 20.9102 38.6113 21.8418C41.0959 22.4631 43.2695 21.5315 45.1328 19.0469C43.8908 24.0154 40.7849 26.5 35.8164 26.5C28.3633 26.5 27.4316 20.9102 23.7051 19.9785C21.2205 19.3574 19.0469 20.2891 17.1836 22.7734ZM7.86719 33.9531C9.10938 28.9846 12.2148 26.5 17.1836 26.5C24.6367 26.5 25.5684 32.0898 29.2949 33.0215C31.7795 33.6428 33.9531 32.7111 35.8164 30.2266C34.5744 35.1951 31.4685 37.6797 26.5 37.6797C19.0469 37.6797 18.1152 32.0898 14.3887 31.1582C11.9043 30.5369 9.73047 31.4685 7.86719 33.9531Z" fill="url(#paint0_linear_47_20)"/>
<defs>
<linearGradient id="paint0_linear_47_20" x1="17.9082" y1="15.3203" x2="33.8496" y2="38.4043" gradientUnits="userSpaceOnUse">
<stop stop-color="#32B1C1"/>
<stop offset="1" stop-color="#14C6B7"/>
</linearGradient>
</defs>
</svg>
