<svg width="53" height="53" viewBox="0 0 53 53" fill="none" xmlns="http://www.w3.org/2000/svg">
<path d="M40.5781 0H12.4219C5.56146 0 0 5.56146 0 12.4219V40.5781C0 47.4385 5.56146 53 12.4219 53H40.5781C47.4385 53 53 47.4385 53 40.5781V12.4219C53 5.56146 47.4385 0 40.5781 0Z" fill="#242938"/>
<path d="M24.8184 6.44198C25.8368 5.85919 27.163 5.8565 28.1804 6.44198C33.2986 9.33421 38.4185 12.2217 43.5359 15.1156C44.4986 15.6578 45.1423 16.729 45.1325 17.838V35.238C45.1398 36.393 44.4323 37.4898 43.4169 38.0196C38.3154 40.8959 33.2164 43.7755 28.1158 46.6518C27.0767 47.246 25.7238 47.2002 24.7168 46.5572C23.1874 45.6707 21.6554 44.7883 20.1258 43.9026C19.8132 43.7163 19.4609 43.5681 19.2402 43.265C19.4354 43.002 19.7842 42.9693 20.0677 42.8544C20.7059 42.6513 21.2925 42.3255 21.8788 42.0093C22.0272 41.9079 22.2082 41.9468 22.3504 42.0375C23.6582 42.7874 24.9546 43.5592 26.2668 44.3018C26.5467 44.4635 26.8301 44.2488 27.0695 44.1155C32.0755 41.286 37.0877 38.4674 42.0931 35.6371C42.2786 35.5479 42.3811 35.351 42.366 35.1479C42.3695 29.408 42.3668 23.6672 42.3678 17.927C42.3889 17.6968 42.2556 17.4848 42.0471 17.3904C36.9635 14.5274 31.8821 11.6602 26.7993 8.79655C26.7113 8.73596 26.6069 8.70344 26.5001 8.70325C26.3932 8.70307 26.2888 8.73523 26.2006 8.79551C21.1175 11.6602 16.0374 14.5303 10.9544 17.3929C10.7467 17.4875 10.6074 17.696 10.632 17.927C10.633 23.6672 10.632 29.408 10.632 35.1487C10.6232 35.2479 10.645 35.3474 10.6944 35.4338C10.7439 35.5202 10.8186 35.5893 10.9086 35.6319C12.2649 36.4011 13.623 37.1648 14.9803 37.9314C15.7451 38.3428 16.6837 38.5875 17.5262 38.2722C18.2696 38.0056 18.7907 37.2468 18.7766 36.4576C18.7837 30.7512 18.7731 25.0439 18.7818 19.3382C18.7632 19.085 19.0035 18.8757 19.2499 18.8997C19.9016 18.8951 20.5542 18.8908 21.2059 18.9013C21.478 18.8951 21.6651 19.168 21.6316 19.423C21.6289 25.1657 21.6386 30.9083 21.6272 36.6507C21.6289 38.1813 21.0001 39.8467 19.5845 40.5955C17.8406 41.4988 15.685 41.3073 13.9621 40.4411C12.4707 39.6966 11.0471 38.8179 9.58216 38.0205C8.56398 37.4936 7.86007 36.3924 7.86732 35.2382V17.838C7.85655 16.706 8.52588 15.6153 9.51839 15.081C14.619 12.2026 19.7188 9.32179 24.8184 6.44198Z" fill="#81CD39"/>
<path d="M29.2685 18.4951C31.4931 18.3519 33.8746 18.4103 35.8763 19.5063C37.4264 20.346 38.2856 22.1087 38.3129 23.8305C38.2696 24.0626 38.0268 24.1908 37.805 24.1748C37.1597 24.174 36.514 24.1837 35.8687 24.1705C35.5948 24.181 35.4358 23.9287 35.4014 23.6867C35.2159 22.8627 34.7664 22.0468 33.9911 21.6493C32.8007 21.0534 31.4206 21.0834 30.1225 21.0959C29.1749 21.146 28.1559 21.2282 27.3531 21.7853C26.7367 22.2074 26.5496 23.0596 26.7695 23.7459C26.9769 24.2386 27.5456 24.3976 28.0112 24.5442C30.6921 25.2454 33.533 25.1754 36.1627 26.0982C37.2514 26.4743 38.3164 27.2058 38.6891 28.3457C39.1766 29.8736 38.963 31.6996 37.8759 32.926C36.9943 33.9353 35.7105 34.4848 34.43 34.7831C32.7266 35.163 30.9587 35.1728 29.2288 35.004C27.6021 34.8185 25.9092 34.3912 24.6536 33.283C23.5797 32.3505 23.0553 30.8976 23.1073 29.4955C23.1197 29.2587 23.3555 29.0935 23.5824 29.1129C24.2323 29.1078 24.8824 29.1059 25.5322 29.114C25.7921 29.0953 25.9844 29.3198 25.9978 29.5645C26.1175 30.3493 26.4125 31.1733 27.0972 31.6385C28.418 32.4909 30.0757 32.4325 31.5883 32.4563C32.8415 32.4008 34.2482 32.384 35.2708 31.5557C35.8103 31.0833 35.9701 30.2928 35.8244 29.6129C35.6664 29.0388 35.0658 28.7713 34.5501 28.5964C31.9036 27.7594 29.0309 28.0631 26.41 27.1163C25.3459 26.7404 24.317 26.0294 23.9083 24.9363C23.3379 23.3892 23.5992 21.4754 24.8002 20.2905C25.9711 19.1115 27.6613 18.6575 29.2685 18.4951Z" fill="#81CD39"/>
</svg>
