<svg width="53" height="53" viewBox="0 0 53 53" fill="none" xmlns="http://www.w3.org/2000/svg">
<path d="M40.5781 0H12.4219C5.56146 0 0 5.56146 0 12.4219V40.5781C0 47.4385 5.56146 53 12.4219 53H40.5781C47.4385 53 53 47.4385 53 40.5781V12.4219C53 5.56146 47.4385 0 40.5781 0Z" fill="#F4F2EE"/>
<path d="M37.6797 10.3516H45.1328L26.5 42.4932L7.86719 10.3516H22.1213L26.5 17.8047L30.7855 10.3516H37.6797Z" fill="#41B883"/>
<path d="M7.86719 10.3516L26.5 42.4932L45.1328 10.3516H37.6797L26.5 29.6365L15.2271 10.3516H7.86719Z" fill="#41B883"/>
<path d="M15.2271 10.3516L26.4999 29.7297L37.6796 10.3516H30.7854L26.4999 17.8047L22.1212 10.3516H15.2271Z" fill="#35495E"/>
</svg>
