<svg width="53" height="53" viewBox="0 0 53 53" fill="none" xmlns="http://www.w3.org/2000/svg">
<path d="M40.5781 0H12.4219C5.56146 0 0 5.56146 0 12.4219V40.5781C0 47.4385 5.56146 53 12.4219 53H40.5781C47.4385 53 53 47.4385 53 40.5781V12.4219C53 5.56146 47.4385 0 40.5781 0Z" fill="#0277BD"/>
<path d="M11.1286 21.252L11.7211 27.865H26.5199V21.252H11.1286ZM26.5197 7.86719H9.9375L10.5387 14.4802H26.5197V7.86719ZM26.5197 45.3069V38.4267L26.4907 38.4343L19.1258 36.4458L18.655 31.1715H12.0165L12.943 41.5549L26.4892 45.3154L26.5197 45.3069Z" fill="#EBEBEB"/>
<path d="M34.64 27.865L33.8723 36.4414L26.4968 38.4322V45.3121L40.0539 41.5549L40.1532 40.4375L41.7072 23.0279L41.8685 21.252L43.0624 7.86719H26.4968V14.4802H35.8151L35.2135 21.252H26.4968V27.865H34.64Z" fill="white"/>
</svg>
