<svg width="53" height="53" viewBox="0 0 53 53" fill="none" xmlns="http://www.w3.org/2000/svg">
<path d="M40.5781 0H12.4219C5.56146 0 0 5.56146 0 12.4219V40.5781C0 47.4385 5.56146 53 12.4219 53H40.5781C47.4385 53 53 47.4385 53 40.5781V12.4219C53 5.56146 47.4385 0 40.5781 0Z" fill="#F0DB4F"/>
<path d="M13.9358 44.2906L17.9915 41.836C18.7741 43.2234 19.4858 44.3972 21.1932 44.3972C22.8298 44.3972 23.8617 43.7571 23.8617 41.2669V24.3322H28.8424V41.3373C28.8424 46.4959 25.8185 48.8441 21.4067 48.8441C17.4224 48.8441 15.1096 46.7806 13.9355 44.2902M31.5477 43.7569L35.603 41.4089C36.6707 43.1524 38.0582 44.433 40.5128 44.433C42.5767 44.433 43.8926 43.4012 43.8926 41.9781C43.8926 40.2705 42.5406 39.6655 40.2637 38.6697L39.0188 38.1358C35.4254 36.6062 33.0416 34.685 33.0416 30.6292C33.0416 26.8936 35.8879 24.0473 40.3351 24.0473C43.5015 24.0473 45.7784 25.1504 47.4148 28.032L43.5369 30.5224C42.6829 28.9927 41.7583 28.3879 40.3351 28.3879C38.8764 28.3879 37.9514 29.3129 37.9514 30.5224C37.9514 32.0166 38.8764 32.6215 41.0109 33.5467L42.256 34.0802C46.4896 35.8949 48.8733 37.7445 48.8733 41.9069C48.8733 46.3899 45.3513 48.8445 40.6196 48.8445C35.9947 48.8445 33.0062 46.6388 31.5477 43.7569Z" fill="#323330"/>
</svg>
