<svg width="53" height="53" viewBox="0 0 53 53" fill="none" xmlns="http://www.w3.org/2000/svg">
<path d="M40.5781 0H12.4219C5.56146 0 0 5.56146 0 12.4219V40.5781C0 47.4385 5.56146 53 12.4219 53H40.5781C47.4385 53 53 47.4385 53 40.5781V12.4219C53 5.56146 47.4385 0 40.5781 0Z" fill="#F4F2ED"/>
<path d="M47.0144 11.9254L27.5882 46.6626C27.187 47.3799 26.1566 47.3841 25.7496 46.6704L5.93811 11.9285C5.49465 11.1509 6.15963 10.2089 7.04117 10.3665L26.488 13.8425C26.6121 13.8646 26.7392 13.8644 26.8632 13.8417L45.9034 10.3712C46.7819 10.2112 47.4499 11.1459 47.0144 11.9254Z" fill="url(#paint0_linear_47_10)"/>
<path d="M35.7516 5.80724L21.3757 8.6239C21.2609 8.64635 21.1567 8.70638 21.0797 8.79454C21.0026 8.88269 20.9571 8.99397 20.9503 9.11083L20.0659 24.0463C20.061 24.1282 20.0753 24.21 20.1077 24.2854C20.14 24.3608 20.1895 24.4276 20.2521 24.4806C20.3148 24.5335 20.3889 24.5711 20.4686 24.5904C20.5483 24.6097 20.6314 24.6102 20.7114 24.5918L24.7139 23.6682C25.0884 23.5819 25.4267 23.9117 25.3499 24.2883L24.1607 30.1113C24.0806 30.5032 24.4487 30.8381 24.8313 30.722L27.3035 29.9709C27.6867 29.8545 28.055 30.1905 27.9738 30.5829L26.084 39.7293C25.9658 40.3015 26.7269 40.6135 27.0443 40.1229L27.2563 39.7953L38.9705 16.4174C39.1668 16.0261 38.8285 15.5797 38.3985 15.6625L34.2788 16.4578C33.8916 16.5323 33.5622 16.1718 33.6713 15.7932L36.3605 6.47139C36.4698 6.09211 36.1391 5.73146 35.7516 5.80724Z" fill="url(#paint1_linear_47_10)"/>
<defs>
<linearGradient id="paint0_linear_47_10" x1="5.45449" y1="9.12489" x2="29.6318" y2="41.9596" gradientUnits="userSpaceOnUse">
<stop stop-color="#41D1FF"/>
<stop offset="1" stop-color="#BD34FE"/>
</linearGradient>
<linearGradient id="paint1_linear_47_10" x1="25.3719" y1="6.5718" x2="29.7454" y2="36.5741" gradientUnits="userSpaceOnUse">
<stop stop-color="#FFEA83"/>
<stop offset="0.083" stop-color="#FFDD35"/>
<stop offset="1" stop-color="#FFA800"/>
</linearGradient>
</defs>
</svg>
