<svg width="53" height="53" viewBox="0 0 53 53" fill="none" xmlns="http://www.w3.org/2000/svg">
<path d="M40.5781 0H12.4219C5.56146 0 0 5.56146 0 12.4219V40.5781C0 47.4385 5.56146 53 12.4219 53H40.5781C47.4385 53 53 47.4385 53 40.5781V12.4219C53 5.56146 47.4385 0 40.5781 0Z" fill="#F4F2ED"/>
<path d="M47.2031 37.8737C46.6004 38.1019 45.935 38.1015 45.3326 37.8724C44.7302 37.6433 44.2326 37.2015 43.9339 36.6305C42.0576 33.8217 39.9856 31.1396 37.9942 28.3999L37.1306 27.2488C34.7593 30.4259 32.388 33.4763 30.2239 36.642C29.942 37.1878 29.4713 37.6125 28.8995 37.837C28.3277 38.0615 27.6938 38.0705 27.1159 37.8623L36.0141 25.9251L27.7374 15.1387C28.3332 14.9236 28.985 14.9206 29.5827 15.1303C30.1804 15.3401 30.6875 15.7496 31.0183 16.2898C32.9405 19.0988 35.0703 21.7809 37.1882 24.6243C39.3179 21.8039 41.4245 19.1102 43.3929 16.3244C43.6764 15.7875 44.1473 15.3735 44.7162 15.1613C45.285 14.949 45.912 14.9533 46.4779 15.1733L43.2662 19.4326C41.8274 21.3319 40.4115 23.2428 38.915 25.0961C38.7944 25.2041 38.6979 25.3362 38.6318 25.484C38.5657 25.6318 38.5315 25.7919 38.5315 25.9538C38.5315 26.1156 38.5657 26.2757 38.6318 26.4235C38.6979 26.5713 38.7944 26.7034 38.915 26.8114C41.6663 30.4605 44.3943 34.121 47.2031 37.8737ZM5.79688 25.7754C6.03869 24.6243 6.18816 23.3695 6.52211 22.1954C8.51354 15.116 16.629 12.1689 22.212 16.5548C25.4812 19.122 26.2986 22.7596 26.1375 26.8575H7.71937C7.42 34.1788 12.7036 38.5991 19.4607 36.3429C20.5568 35.9508 21.538 35.2919 22.3158 34.4257C23.0935 33.5595 23.6434 32.5132 23.9156 31.3814C24.2726 30.2303 24.8481 30.0346 25.9416 30.3684C25.7616 31.7698 25.2661 33.1121 24.4925 34.2945C23.7189 35.4768 22.6874 36.4684 21.4754 37.1946C19.4729 38.2898 17.1754 38.7236 14.9114 38.4342C12.6475 38.1447 10.533 37.1468 8.87046 35.5831C7.22566 33.7337 6.23114 31.397 6.03869 28.9295C6.03869 28.5382 5.889 28.1467 5.80847 27.7784C5.80085 27.1108 5.79699 26.4431 5.79688 25.7754ZM7.74235 25.2804H24.3993C24.2955 19.9738 20.9458 16.2095 16.4795 16.1751C11.5066 16.106 7.94959 19.7895 7.73075 25.2574L7.74235 25.2804Z" fill="#0F0F0F"/>
</svg>
