<svg width="53" height="53" viewBox="0 0 53 53" fill="none" xmlns="http://www.w3.org/2000/svg">
<path d="M40.5781 0H12.4219C5.56146 0 0 5.56146 0 12.4219V40.5781C0 47.4385 5.56146 53 12.4219 53H40.5781C47.4385 53 53 47.4385 53 40.5781V12.4219C53 5.56146 47.4385 0 40.5781 0Z" fill="#2396ED"/>
<path d="M29.2301 25.2833H33.5192V21.4027H29.2301V25.2833ZM24.1243 25.2833H28.4132V21.4027H24.1243V25.2833ZM19.1204 25.2833H23.4094V21.4027H19.1204V25.2833ZM14.1164 25.2833H18.3036V21.4027H14.1166L14.1164 25.2833ZM9.01062 25.2833H13.2997V21.4027H9.01062V25.2833ZM14.1166 20.5857H18.3034V16.7054H14.1166V20.5857ZM19.1206 20.5857H23.4094V16.7054H19.1204L19.1206 20.5857ZM24.1243 20.5857H28.4132V16.7054H24.1243V20.5857ZM24.1243 15.8882H28.4132V12.0078H24.1243V15.8884V15.8882ZM47.2031 23.5475C47.2031 23.5475 45.3649 21.8114 41.5866 22.4242C41.1781 19.4626 38.0124 17.7266 38.0124 17.7266C38.0124 17.7266 35.051 21.3008 37.1954 25.2835C36.5828 25.5899 35.5615 25.9984 34.0297 25.9984H5.94718C5.43643 27.9387 5.43643 40.8054 19.5288 40.8054C29.6386 40.8054 37.1954 36.1081 40.7696 27.53C46.0798 27.9385 47.2031 23.5475 47.2031 23.5475Z" fill="white"/>
</svg>
