<svg width="50" height="50" viewBox="0 0 50 50" fill="none" xmlns="http://www.w3.org/2000/svg">
<path d="M38.2803 0H11.7185C5.24653 0 0 5.24653 0 11.7185V38.2803C0 44.7522 5.24653 49.9988 11.7185 49.9988H38.2803C44.7522 49.9988 49.9988 44.7522 49.9988 38.2803V11.7185C49.9988 5.24653 44.7522 0 38.2803 0Z" fill="#DFDFDF"/>
<path d="M26.7481 14.8722C26.3662 15.2383 26.0533 15.67 25.8242 16.1468C24.8664 15.7957 23.8167 15.7867 22.853 16.1213C21.8893 16.4559 21.0711 17.1135 20.537 17.9826L18.1401 15.4967C17.3264 14.6528 16.2108 14.1666 15.0387 14.1453C13.8666 14.1239 12.734 14.569 11.8901 15.3827C11.0462 16.1963 10.5601 17.3119 10.5387 18.484C10.5173 19.6561 10.9624 20.7887 11.7761 21.6327L18.1834 28.2781C17.0872 28.1831 15.9951 28.5003 15.1204 29.1677C14.2457 29.8351 13.6514 30.8048 13.4536 31.8871C13.2558 32.9694 13.4687 34.0866 14.0508 35.0202C14.6329 35.9539 15.5422 36.6369 16.6011 36.9357L17.8565 37.3064C27.0307 40.0196 31.2214 41.2595 36.1217 36.5348C38.5447 34.1936 39.9399 30.9869 40.0014 27.6182C40.0629 24.2496 38.7855 20.9941 36.4496 18.5661L32.9981 14.9863C32.1844 14.1424 31.0688 13.6562 29.8967 13.6349C28.7246 13.6135 27.592 14.0586 26.7481 14.8722ZM34.0631 20.867C35.7894 22.6618 36.7334 25.068 36.688 27.5578C36.6426 30.0476 35.6114 32.4177 33.8207 34.1483C30.4399 37.408 28.1108 36.881 18.7918 34.1232L17.5316 33.7495C17.5289 33.7477 17.5266 33.7453 17.5249 33.7425C17.2432 33.6615 17.0052 33.4718 16.8633 33.2153C16.7214 32.9588 16.6873 32.6565 16.7683 32.3747C16.8494 32.093 17.039 31.8551 17.2955 31.7132C17.552 31.5713 17.8544 31.5371 18.1361 31.6182C18.1536 31.6244 18.1711 31.6286 18.1895 31.6338L22.9233 32.826C23.2716 32.9117 23.6384 32.8819 23.9684 32.7414C24.2985 32.6008 24.574 32.3569 24.7537 32.0464C24.9333 31.7359 25.0073 31.3754 24.9647 31.0192C24.922 30.663 24.7649 30.3303 24.517 30.071L14.1626 19.3317C13.9592 19.1207 13.8479 18.8375 13.8532 18.5445C13.8586 18.2515 13.9801 17.9726 14.1911 17.7692C14.4021 17.5657 14.6852 17.4545 14.9783 17.4598C15.2713 17.4652 15.5502 17.5867 15.7536 17.7977L22.2731 24.5595C22.5782 24.8759 22.9965 25.0582 23.4361 25.0663C23.8756 25.0743 24.3003 24.9074 24.6168 24.6022C24.9333 24.2971 25.1156 23.8788 25.1236 23.4392C25.1316 22.9997 24.9647 22.575 24.6596 22.2585L23.5091 21.0652C23.3057 20.8542 23.1944 20.5711 23.1997 20.2781C23.2051 19.985 23.3266 19.7061 23.5376 19.5027C23.7486 19.2993 24.0317 19.188 24.3247 19.1934C24.6178 19.1987 24.8967 19.3203 25.1001 19.5312L27.0176 21.52C27.3227 21.8365 27.7411 22.0188 28.1806 22.0268C28.6201 22.0348 29.0449 21.8679 29.3613 21.5628C29.6778 21.2576 29.8601 20.8393 29.8681 20.3997C29.8761 19.9602 29.7092 19.5355 29.4041 19.219L29.0206 18.8213C28.8172 18.6103 28.7059 18.3271 28.7112 18.0341C28.7166 17.7411 28.8381 17.4622 29.0491 17.2588C29.2601 17.0553 29.5432 16.9441 29.8363 16.9494C30.1293 16.9548 30.4082 17.0763 30.6116 17.2873L34.0631 20.867Z" fill="white"/>
</svg>
