<svg width="50" height="50" viewBox="0 0 50 50" fill="none" xmlns="http://www.w3.org/2000/svg">
<path d="M38.2812 0H11.7188C5.24666 0 0 5.24666 0 11.7188V38.2812C0 44.7533 5.24666 50 11.7188 50H38.2812C44.7533 50 50 44.7533 50 38.2812V11.7188C50 5.24666 44.7533 0 38.2812 0Z" fill="#DFDFDF"/>
<path d="M9 8L10.6816 26.8658H32.3047L31.5791 34.9576L24.617 36.84L17.668 34.9604L17.2033 29.7646H10.9414L11.8369 39.7805L24.6156 43.3297L37.4105 39.7805L39.126 20.6279H16.3875L15.8166 14.2393H39.6912L40.25 8H9Z" fill="white"/>
<path d="M27.4011 16.4912C29.6256 16.3479 32.0071 16.4063 34.0089 17.5023C35.559 18.3421 36.4181 20.1047 36.4455 21.8266C36.4022 22.0587 36.1593 22.1868 35.9376 22.1709C35.2923 22.1701 34.6466 22.1798 34.0013 22.1666C33.7273 22.1771 33.5683 21.9247 33.534 21.6827C33.3485 20.8587 32.899 20.0428 32.1237 19.6453C30.9333 19.0495 29.5532 19.0795 28.2551 19.0919C27.3075 19.142 26.2885 19.2242 25.4856 19.7813C24.8693 20.2035 24.6822 21.0556 24.902 21.7419C25.1095 22.2347 25.6782 22.3937 26.1438 22.5402C28.8246 23.2415 31.6655 23.1715 34.2952 24.0942C35.384 24.4704 36.449 25.2018 36.8216 26.3417C37.3092 27.8696 37.0955 29.6957 36.0084 30.9221C35.1269 31.9314 33.8431 32.4808 32.5626 32.7792C30.8591 33.1591 29.0913 33.1688 27.3613 33.0001C25.7347 32.8146 24.0418 32.3873 22.7862 31.279C21.7123 30.3466 21.1879 28.8936 21.2398 27.4916C21.2523 27.2548 21.4881 27.0895 21.715 27.109C22.3649 27.1038 23.0149 27.102 23.6648 27.11C23.9246 27.0914 24.117 27.3158 24.1304 27.5605C24.2501 28.3454 24.5451 29.1694 25.2298 29.6346C26.5506 30.4869 28.2083 30.4285 29.7209 30.4524C30.974 30.3969 32.3808 30.3801 33.4033 29.5518C33.9429 29.0793 34.1027 28.2889 33.9569 27.609C33.799 27.0349 33.1984 26.7674 32.6827 26.5925C30.0362 25.7554 27.1634 26.0592 24.5426 25.1124C23.4785 24.7364 22.4495 24.0255 22.0408 22.9324C21.4705 21.3852 21.7318 19.4714 22.9327 18.2866C24.1037 17.1075 25.7939 16.6535 27.4011 16.4912Z" fill="white"/>
<path d="M22.9512 4.4381C23.9696 3.85531 25.2959 3.85262 26.3132 4.4381C31.4314 7.33033 36.5513 10.2178 41.6687 13.1117C42.6314 13.6539 43.2751 14.7251 43.2653 15.8341V33.2341C43.2726 34.3891 42.5652 35.486 41.5497 36.0158C36.4482 38.892 31.3492 41.7716 26.2486 44.6479C25.2095 45.2421 23.8566 45.1963 22.8496 44.5533C21.3202 43.6668 19.7882 42.7844 18.2587 41.8988C17.946 41.7124 17.5937 41.5642 17.373 41.2611C17.5682 40.9982 17.9171 40.9655 18.2005 40.8506C18.8388 40.6475 19.4253 40.3216 20.0116 40.0055C20.16 39.904 20.341 39.9429 20.4832 40.0336C21.791 40.7835 23.0875 41.5553 24.3996 42.2979C24.6795 42.4596 24.963 42.2449 25.2023 42.1116C30.2083 39.2821 35.2205 36.4636 40.2259 33.6332C40.4114 33.544 40.5139 33.3471 40.4988 33.144C40.5023 27.4041 40.4996 21.6633 40.5006 15.9232C40.5218 15.6929 40.3884 15.4809 40.18 15.3865C35.0963 12.5235 30.0149 9.65633 24.9321 6.79267C24.8441 6.73209 24.7398 6.69956 24.6329 6.69938C24.526 6.69919 24.4216 6.73136 24.3334 6.79164C19.2503 9.65633 14.1702 12.5264 9.08717 15.389C8.87952 15.4836 8.74019 15.6921 8.76482 15.9232C8.76586 21.6633 8.76482 27.4041 8.76482 33.1448C8.756 33.244 8.77779 33.3435 8.82724 33.4299C8.8767 33.5163 8.95145 33.5854 9.04142 33.6281C10.3977 34.3972 11.7558 35.1609 13.1131 35.9276C13.8779 36.3389 14.8166 36.5836 15.659 36.2683C16.4024 36.0017 16.9235 35.2429 16.9094 34.4537C16.9165 28.7473 16.9059 23.0401 16.9146 17.3343C16.896 17.0811 17.1363 16.8718 17.3827 16.8958C18.0344 16.8912 18.687 16.8869 19.3387 16.8975C19.6108 16.8912 19.7979 17.1641 19.7644 17.4192C19.7617 23.1618 19.7714 28.9044 19.76 34.6469C19.7617 36.1774 19.1329 37.8428 17.7173 38.5916C15.9734 39.4949 13.8178 39.3034 12.0949 38.4372C10.6035 37.6927 9.17992 36.8141 7.71497 36.0166C6.69679 35.4897 5.99288 34.3885 6.00013 33.2343V15.8341C5.98936 14.7021 6.65869 13.6115 7.6512 13.0771C12.7518 10.1987 17.8516 7.31791 22.9512 4.4381Z" fill="white"/>
</svg>
