<svg width="50" height="50" viewBox="0 0 50 50" fill="none" xmlns="http://www.w3.org/2000/svg">
<path d="M38.2803 6.10352e-05H11.7185C5.24653 6.10352e-05 0 5.24659 0 11.7185V38.2804C0 44.7523 5.24653 49.9988 11.7185 49.9988H38.2803C44.7522 49.9988 49.9988 44.7523 49.9988 38.2804V11.7185C49.9988 5.24659 44.7522 6.10352e-05 38.2803 6.10352e-05Z" fill="url(#paint0_linear_190_1410)"/>
<path d="M26.7476 14.8722C26.3657 15.2383 26.0528 15.67 25.8237 16.1468C24.8659 15.7957 23.8162 15.7867 22.8525 16.1213C21.8889 16.4559 21.0706 17.1135 20.5365 17.9826L18.1396 15.4967C17.326 14.6528 16.2104 14.1666 15.0383 14.1453C13.8661 14.1239 12.7336 14.569 11.8896 15.3827C11.0457 16.1963 10.5596 17.3119 10.5382 18.484C10.5168 19.6561 10.9619 20.7887 11.7756 21.6327L18.1829 28.2781C17.0867 28.1831 15.9946 28.5003 15.1199 29.1677C14.2452 29.8351 13.6509 30.8048 13.4531 31.8871C13.2553 32.9694 13.4682 34.0866 14.0503 35.0202C14.6324 35.9539 15.5417 36.6369 16.6006 36.9357L17.856 37.3064C27.0302 40.0196 31.2209 41.2595 36.1212 36.5348C38.5442 34.1936 39.9394 30.9869 40.0009 27.6182C40.0624 24.2496 38.785 20.9941 36.4491 18.5661L32.9976 14.9863C32.184 14.1424 31.0684 13.6562 29.8963 13.6349C28.7242 13.6135 27.5916 14.0586 26.7476 14.8722ZM34.0626 20.867C35.7889 22.6618 36.7329 25.068 36.6875 27.5578C36.6421 30.0476 35.6109 32.4177 33.8203 34.1483C30.4394 37.408 28.1103 36.881 18.7913 34.1232L17.5311 33.7495C17.5284 33.7477 17.5261 33.7453 17.5244 33.7425C17.2427 33.6615 17.0047 33.4718 16.8628 33.2153C16.721 32.9588 16.6868 32.6565 16.7678 32.3747C16.8489 32.093 17.0385 31.8551 17.295 31.7132C17.5515 31.5713 17.8539 31.5371 18.1356 31.6182C18.1531 31.6244 18.1706 31.6286 18.189 31.6338L22.9228 32.826C23.2712 32.9117 23.6379 32.8819 23.968 32.7414C24.298 32.6008 24.5735 32.3569 24.7532 32.0464C24.9328 31.7359 25.0068 31.3754 24.9642 31.0192C24.9215 30.663 24.7644 30.3303 24.5165 30.071L14.1621 19.3317C13.9587 19.1207 13.8474 18.8375 13.8528 18.5445C13.8581 18.2515 13.9796 17.9726 14.1906 17.7692C14.4016 17.5657 14.6847 17.4545 14.9778 17.4598C15.2708 17.4652 15.5497 17.5867 15.7531 17.7977L22.2726 24.5595C22.5777 24.8759 22.9961 25.0582 23.4356 25.0663C23.8751 25.0743 24.2999 24.9074 24.6163 24.6022C24.9328 24.2971 25.1151 23.8788 25.1231 23.4392C25.1311 22.9997 24.9642 22.575 24.6591 22.2585L23.5086 21.0652C23.3052 20.8542 23.1939 20.5711 23.1992 20.2781C23.2046 19.985 23.3261 19.7061 23.5371 19.5027C23.7481 19.2993 24.0312 19.188 24.3243 19.1934C24.6173 19.1987 24.8962 19.3203 25.0996 19.5312L27.0171 21.52C27.3222 21.8365 27.7406 22.0188 28.1801 22.0268C28.6196 22.0348 29.0444 21.8679 29.3608 21.5628C29.6773 21.2576 29.8596 20.8393 29.8676 20.3997C29.8757 19.9602 29.7087 19.5355 29.4036 19.219L29.0201 18.8213C28.8167 18.6103 28.7054 18.3271 28.7108 18.0341C28.7161 17.7411 28.8376 17.4622 29.0486 17.2588C29.2596 17.0553 29.5428 16.9441 29.8358 16.9494C30.1288 16.9548 30.4077 17.0763 30.6111 17.2873L34.0626 20.867Z" fill="white"/>
<defs>
<linearGradient id="paint0_linear_190_1410" x1="24.9994" y1="6.10352e-05" x2="24.9994" y2="49.9988" gradientUnits="userSpaceOnUse">
<stop stop-color="#E9E9E9"/>
<stop offset="0.0001" stop-color="#7A2508"/>
<stop offset="0.510417" stop-color="#8D371A"/>
<stop offset="1" stop-color="#67230C"/>
</linearGradient>
</defs>
</svg>
