<svg width="50" height="50" viewBox="0 0 50 50" fill="none" xmlns="http://www.w3.org/2000/svg">
<path d="M38.2812 0H11.7188C5.24666 0 0 5.24666 0 11.7188V38.2812C0 44.7533 5.24666 50 11.7188 50H38.2812C44.7533 50 50 44.7533 50 38.2812V11.7188C50 5.24666 44.7533 0 38.2812 0Z" fill="url(#paint0_linear_225_839)"/>
<path d="M39.1774 16.36H36.3548V15.8C36.3548 15.0574 36.0575 14.3452 35.5281 13.8201C34.9988 13.295 34.2809 13 33.5323 13L15.4677 13C14.7191 13 14.0012 13.295 13.4719 13.8201C12.9425 14.3452 12.6452 15.0574 12.6452 15.8V16.36H9.82258C9.45191 16.36 9.08488 16.4324 8.74243 16.5731C8.39997 16.7139 8.08882 16.9201 7.82671 17.1801C7.29738 17.7052 7 18.4174 7 19.16V21.4C7.00187 23.0332 7.6567 24.5989 8.82084 25.7537C9.98497 26.9086 11.5633 27.5581 13.2097 27.56H13.3183C14.0417 29.5818 15.3076 31.3693 16.9796 32.7299C18.6516 34.0905 20.6663 34.9726 22.8065 35.281L22.8065 37.64H19.9839C19.5347 37.64 19.104 37.817 18.7864 38.1321C18.4687 38.4471 18.2903 38.8744 18.2903 39.32C18.2903 39.7656 18.4687 40.1929 18.7864 40.5079C19.104 40.823 19.5347 41 19.9839 41H29.0161C29.4653 41 29.896 40.823 30.2136 40.5079C30.5312 40.1929 30.7097 39.7656 30.7097 39.32C30.7097 38.8744 30.5312 38.4471 30.2136 38.1321C29.896 37.817 29.4653 37.64 29.0161 37.64H26.1935V35.2754C30.5601 34.644 34.1716 31.6074 35.6492 27.56H35.7903C37.4367 27.5581 39.015 26.9086 40.1792 25.7537C41.3433 24.5989 41.9981 23.0332 42 21.4V19.16C42 18.4174 41.7026 17.7052 41.1733 17.1801C40.6439 16.655 39.926 16.36 39.1774 16.36ZM10.3871 21.4V19.72H12.6452V23.64C12.6452 23.8094 12.6452 23.9774 12.6579 24.1454C12.0177 24.0188 11.4416 23.6761 11.0276 23.1755C10.6136 22.6749 10.3872 22.0475 10.3871 21.4ZM32.9677 23.514C32.9677 28.1802 29.1982 32.005 24.5649 32.04C23.4475 32.0485 22.3394 31.8375 21.3045 31.4192C20.2697 31.0008 19.3285 30.3834 18.5353 29.6026C17.7421 28.8217 17.1126 27.8928 16.683 26.8695C16.2534 25.8461 16.0322 24.7485 16.0323 23.64V16.36L32.9677 16.36V23.514ZM38.6129 21.4C38.6129 22.0483 38.3861 22.6766 37.9712 23.1775C37.5563 23.6784 36.979 24.021 36.3379 24.1468C36.3492 23.9368 36.3548 23.7268 36.3548 23.514V19.72H38.6129V21.4Z" fill="white"/>
<defs>
<linearGradient id="paint0_linear_225_839" x1="47.5" y1="-2.44074e-07" x2="-2" y2="41.5" gradientUnits="userSpaceOnUse">
<stop stop-color="#EC0000"/>
<stop offset="0.255208" stop-color="#DBC81D"/>
<stop offset="0.529048" stop-color="#25DA22"/>
<stop offset="0.796875" stop-color="#5D6BE4"/>
<stop offset="1" stop-color="#FA0909"/>
</linearGradient>
</defs>
</svg>
