<svg width="64" height="64" viewBox="0 0 64 64" fill="none" xmlns="http://www.w3.org/2000/svg">
<path d="M17.9198 24.305L8.68485 32L17.9198 39.695C18.2261 39.946 18.4797 40.2551 18.6659 40.6046C18.8521 40.9541 18.9673 41.3369 19.0048 41.7311C19.0423 42.1253 19.0014 42.5231 18.8844 42.9014C18.7675 43.2797 18.5768 43.6311 18.3233 43.9354C18.0699 44.2396 17.7587 44.4907 17.4078 44.6741C17.0569 44.8575 16.6731 44.9696 16.2786 45.004C15.8841 45.0384 15.4867 44.9943 15.1093 44.8743C14.732 44.7543 14.3821 44.5608 14.0799 44.305L2.07985 34.305C1.74188 34.0234 1.46995 33.671 1.28334 33.2727C1.09673 32.8743 1 32.4399 1 32C1 31.5601 1.09673 31.1256 1.28334 30.7273C1.46995 30.3289 1.74188 29.9765 2.07985 29.695L14.0799 19.695C14.692 19.1933 15.4777 18.9538 16.2656 19.0288C17.0535 19.1038 17.7799 19.4871 18.2865 20.0953C18.7931 20.7034 19.0388 21.4871 18.9701 22.2756C18.9014 23.0641 18.5239 23.7936 17.9198 24.305ZM61.9198 29.695L49.9198 19.695C49.6176 19.4391 49.2677 19.2456 48.8904 19.1256C48.513 19.0057 48.1156 18.9616 47.7211 18.9959C47.3266 19.0303 46.9429 19.1424 46.5919 19.3258C46.241 19.5092 45.9298 19.7603 45.6764 20.0646C45.4229 20.3688 45.2322 20.7202 45.1153 21.0986C44.9983 21.4769 44.9574 21.8746 44.9949 22.2688C45.0324 22.663 45.1476 23.0459 45.3338 23.3954C45.52 23.7448 45.7736 24.054 46.0799 24.305L55.3148 32L46.0799 39.695C45.7736 39.946 45.52 40.2551 45.3338 40.6046C45.1476 40.9541 45.0324 41.3369 44.9949 41.7311C44.9574 42.1253 44.9983 42.5231 45.1153 42.9014C45.2322 43.2797 45.4229 43.6311 45.6764 43.9354C45.9298 44.2396 46.241 44.4907 46.5919 44.6741C46.9429 44.8575 47.3266 44.9696 47.7211 45.004C48.1156 45.0384 48.513 44.9943 48.8904 44.8743C49.2677 44.7543 49.6176 44.5608 49.9198 44.305L61.9198 34.305C62.2578 34.0234 62.5297 33.671 62.7164 33.2727C62.903 32.8743 62.9997 32.4399 62.9997 32C62.9997 31.5601 62.903 31.1256 62.7164 30.7273C62.5297 30.3289 62.2578 29.9765 61.9198 29.695ZM41.0249 7.17997C40.6545 7.0453 40.2613 6.9849 39.8676 7.00223C39.474 7.01956 39.0876 7.11427 38.7305 7.28096C38.3734 7.44765 38.0527 7.68305 37.7867 7.97371C37.5206 8.26437 37.3144 8.60461 37.1799 8.97498L21.1799 52.975C20.9086 53.7226 20.9454 54.5473 21.282 55.2678C21.6185 55.9883 22.2275 56.5457 22.9748 56.8175C23.303 56.9386 23.6501 57.0004 23.9999 57C24.6158 57.0001 25.2168 56.8106 25.7214 56.4573C26.2259 56.1039 26.6094 55.6039 26.8199 55.025L42.8199 11.025C42.9545 10.6547 43.0149 10.2614 42.9976 9.86776C42.9803 9.47409 42.8856 9.08769 42.7189 8.73063C42.5522 8.37357 42.3168 8.05285 42.0261 7.78679C41.7355 7.52072 41.3952 7.31452 41.0249 7.17997Z" fill="white"/>
</svg>
