<svg width="193" height="48" viewBox="0 0 193 48" fill="none" xmlns="http://www.w3.org/2000/svg">
<path d="M6.76 40L2.32 35.56V23.56L6.76 19.08H14.24L17.28 21.92V10.52H23.44V40H17.28V37.2L14.24 40H6.76ZM13.36 36L17.28 32.32V26.76L13.4 23.12L9.72 23.08L8.36 24.52V34.6L9.72 36H13.36ZM33.01 40L28.57 35.56V23.56L33.01 19.12H43.65L48.13 23.56V31.4H34.73V33.8L36.33 35.4L47.77 35.36V40H33.01ZM34.69 27.36H42.29V24.64L40.69 23.04L36.33 23.08L34.69 24.64V27.36ZM58.5953 40L50.3953 19.12H57.3553L62.0353 34.8H63.2753L67.9553 19.12H74.9153L66.7153 40H58.5953Z" fill="#242938"/>
<path d="M81.248 39.456C80.736 39.2213 80.1813 38.8693 79.584 38.4C79.008 37.9307 78.528 37.376 78.144 36.736C77.248 35.2 76.8 33.1947 76.8 30.72C76.8 29.184 77.0453 27.8187 77.536 26.624C78.0267 25.408 78.624 24.4693 79.328 23.808C80.032 23.1467 80.8427 22.6027 81.76 22.176C83.232 21.4933 84.704 21.152 86.176 21.152C88.6507 21.152 90.368 21.344 91.328 21.728C92.3093 22.112 92.8 22.7627 92.8 23.68C92.8 24.5973 92.6293 25.5787 92.288 26.624C91.968 27.648 91.5413 28.16 91.008 28.16C90.8373 28.16 90.3147 27.9787 89.44 27.616C88.5867 27.2533 87.84 27.072 87.2 27.072C86.5813 27.072 86.1013 27.328 85.76 27.84C85.44 28.3307 85.28 29.3013 85.28 30.752C85.28 32.1813 85.4293 33.1627 85.728 33.696C86.0267 34.208 86.4853 34.464 87.104 34.464C87.744 34.464 88.5333 34.2507 89.472 33.824C90.4107 33.3973 90.9333 33.184 91.04 33.184C91.4453 33.184 91.8293 33.664 92.192 34.624C92.576 35.584 92.768 36.4373 92.768 37.184C92.768 38.336 92.1707 39.1467 90.976 39.616C89.7813 40.064 88.16 40.288 86.112 40.288C84.0853 40.288 82.464 40.0107 81.248 39.456ZM103.354 16.512V39.232C103.354 39.4667 102.746 39.6587 101.53 39.808C100.314 39.936 99.0551 40 97.7538 40C96.4738 40 95.6418 39.9467 95.2578 39.84C94.8951 39.712 94.7138 39.5093 94.7138 39.232V17.088C94.7138 16.6187 95.3111 16.16 96.5058 15.712C97.7218 15.264 99.0231 15.04 100.41 15.04C102.372 15.04 103.354 15.5307 103.354 16.512ZM114.389 23.456V39.232C114.389 39.4667 113.77 39.6587 112.533 39.808C111.317 39.936 110.058 40 108.757 40C107.477 40 106.645 39.9467 106.261 39.84C105.898 39.712 105.717 39.5093 105.717 39.232V24.032C105.717 23.5627 106.314 23.104 107.509 22.656C108.725 22.1867 110.047 21.952 111.477 21.952C113.418 21.952 114.389 22.4533 114.389 23.456ZM110.037 15.04C111.445 15.04 112.543 15.2533 113.333 15.68C114.143 16.0853 114.549 16.832 114.549 17.92C114.549 19.84 113.055 20.8 110.069 20.8C107.082 20.8 105.589 19.84 105.589 17.92C105.589 16 107.071 15.04 110.037 15.04ZM120.904 39.456C120.392 39.2213 119.838 38.8693 119.24 38.4C118.664 37.9307 118.184 37.376 117.8 36.736C116.904 35.2 116.456 33.1947 116.456 30.72C116.456 29.184 116.702 27.8187 117.192 26.624C117.683 25.408 118.28 24.4693 118.984 23.808C119.688 23.1467 120.499 22.6027 121.416 22.176C122.888 21.4933 124.36 21.152 125.832 21.152C128.307 21.152 130.024 21.344 130.984 21.728C131.966 22.112 132.456 22.7627 132.456 23.68C132.456 24.5973 132.286 25.5787 131.944 26.624C131.624 27.648 131.198 28.16 130.664 28.16C130.494 28.16 129.971 27.9787 129.096 27.616C128.243 27.2533 127.496 27.072 126.856 27.072C126.238 27.072 125.758 27.328 125.416 27.84C125.096 28.3307 124.936 29.3013 124.936 30.752C124.936 32.1813 125.086 33.1627 125.384 33.696C125.683 34.208 126.142 34.464 126.76 34.464C127.4 34.464 128.19 34.2507 129.128 33.824C130.067 33.3973 130.59 33.184 130.696 33.184C131.102 33.184 131.486 33.664 131.848 34.624C132.232 35.584 132.424 36.4373 132.424 37.184C132.424 38.336 131.827 39.1467 130.632 39.616C129.438 40.064 127.816 40.288 125.768 40.288C123.742 40.288 122.12 40.0107 120.904 39.456ZM143.01 39.232C143.01 39.4667 142.413 39.6587 141.218 39.808C140.023 39.936 138.775 40 137.474 40C136.173 40 135.33 39.9467 134.946 39.84C134.562 39.712 134.37 39.5093 134.37 39.232V17.088C134.37 16.6187 134.967 16.16 136.162 15.712C137.378 15.264 138.679 15.04 140.066 15.04C142.029 15.04 143.01 15.5307 143.01 16.512V28.48H143.426C144.45 23.5947 145.207 21.152 145.698 21.152C146.935 21.152 148.429 21.44 150.178 22.016C151.927 22.592 152.802 23.232 152.802 23.936C152.802 24.448 152.375 25.4293 151.522 26.88C150.669 28.3307 149.783 29.5147 148.866 30.432C151.917 34.08 153.442 36.2453 153.442 36.928C153.442 37.568 152.471 38.3467 150.53 39.264C148.589 40.1813 147.223 40.64 146.434 40.64C146.05 40.64 145.645 40.1813 145.218 39.264C144.791 38.3253 144.333 36.928 143.842 35.072L143.01 36.064V39.232ZM163.13 32.768C163.13 34.1547 163.791 34.848 165.114 34.848C165.882 34.848 166.884 34.592 168.122 34.08C169.359 33.5467 170.01 33.28 170.074 33.28C170.479 33.28 171.012 33.888 171.674 35.104C172.335 36.32 172.666 37.216 172.666 37.792C172.666 38.624 171.812 39.2533 170.106 39.68C168.399 40.1067 166.724 40.32 165.082 40.32C163.46 40.32 162.095 40.192 160.986 39.936C159.898 39.68 159.002 39.36 158.298 38.976C157.615 38.5707 157.007 38.08 156.474 37.504C155.962 36.928 155.578 36.384 155.322 35.872C155.066 35.3387 154.863 34.752 154.714 34.112C154.5 33.1733 154.394 32.2027 154.394 31.2C154.394 27.3173 155.407 24.64 157.434 23.168C158.436 22.4213 159.556 21.8987 160.794 21.6C162.031 21.3013 163.492 21.152 165.178 21.152C170.575 21.152 173.274 23.0293 173.274 26.784C173.274 30.7733 170.244 32.768 164.186 32.768H163.13ZM163.066 28.096V30.208C163.684 30.208 164.186 29.9627 164.57 29.472C164.975 28.9813 165.178 28.384 165.178 27.68C165.178 26.4 164.847 25.76 164.186 25.76C163.439 25.76 163.066 26.5387 163.066 28.096ZM183.823 29.888V39.232C183.823 39.4667 183.215 39.6587 181.999 39.808C180.804 39.936 179.556 40 178.255 40C176.975 40 176.143 39.9467 175.759 39.84C175.375 39.712 175.183 39.5093 175.183 39.232V23.456C175.183 23.0507 175.769 22.6133 176.943 22.144C178.137 21.6747 179.428 21.44 180.815 21.44C182.223 21.44 183.012 21.824 183.183 22.592L183.503 24.064H183.727C184.025 23.2533 184.74 22.5707 185.871 22.016C187.001 21.44 188.132 21.152 189.263 21.152C190.393 21.152 191.183 21.3333 191.631 21.696C192.1 22.0587 192.335 22.528 192.335 23.104C192.335 23.6587 192.292 24.3733 192.207 25.248C192.121 26.1227 191.908 27.072 191.567 28.096C191.247 29.12 190.82 29.632 190.287 29.632C190.073 29.632 189.401 29.472 188.271 29.152C187.14 28.832 186.201 28.672 185.455 28.672C184.729 28.672 184.271 28.7787 184.079 28.992C183.908 29.2053 183.823 29.504 183.823 29.888Z" fill="#532EE7"/>
</svg>
