<svg width="64" height="64" viewBox="0 0 64 64" fill="none" xmlns="http://www.w3.org/2000/svg">
<path d="M60 51H57V24C57 22.6739 56.4732 21.4022 55.5355 20.4645C54.5979 19.5268 53.3261 19 52 19H43V8.00002C42.9997 7.15951 42.7875 6.33264 42.3831 5.59584C41.9786 4.85904 41.3949 4.23609 40.686 3.78456C39.9771 3.33304 39.1658 3.06752 38.3271 3.01254C37.4883 2.95756 36.6493 3.1149 35.8875 3.47002L9.8875 15.605C9.02576 16.0087 8.29667 16.6493 7.78538 17.4518C7.27408 18.2544 7.00168 19.1859 7 20.1375V51H4C3.20435 51 2.44129 51.3161 1.87868 51.8787C1.31607 52.4413 1 53.2044 1 54C1 54.7957 1.31607 55.5587 1.87868 56.1213C2.44129 56.6839 3.20435 57 4 57H60C60.7956 57 61.5587 56.6839 62.1213 56.1213C62.6839 55.5587 63 54.7957 63 54C63 53.2044 62.6839 52.4413 62.1213 51.8787C61.5587 51.3161 60.7956 51 60 51ZM51 25V51H43V25H51ZM13 20.7725L37 9.57502V51H13V20.7725ZM33 28V31C33 31.7957 32.6839 32.5587 32.1213 33.1213C31.5587 33.6839 30.7956 34 30 34C29.2044 34 28.4413 33.6839 27.8787 33.1213C27.3161 32.5587 27 31.7957 27 31V28C27 27.2044 27.3161 26.4413 27.8787 25.8787C28.4413 25.3161 29.2044 25 30 25C30.7956 25 31.5587 25.3161 32.1213 25.8787C32.6839 26.4413 33 27.2044 33 28ZM23 28V31C23 31.7957 22.6839 32.5587 22.1213 33.1213C21.5587 33.6839 20.7956 34 20 34C19.2044 34 18.4413 33.6839 17.8787 33.1213C17.3161 32.5587 17 31.7957 17 31V28C17 27.2044 17.3161 26.4413 17.8787 25.8787C18.4413 25.3161 19.2044 25 20 25C20.7956 25 21.5587 25.3161 22.1213 25.8787C22.6839 26.4413 23 27.2044 23 28ZM23 41V44C23 44.7957 22.6839 45.5587 22.1213 46.1213C21.5587 46.6839 20.7956 47 20 47C19.2044 47 18.4413 46.6839 17.8787 46.1213C17.3161 45.5587 17 44.7957 17 44V41C17 40.2044 17.3161 39.4413 17.8787 38.8787C18.4413 38.3161 19.2044 38 20 38C20.7956 38 21.5587 38.3161 22.1213 38.8787C22.6839 39.4413 23 40.2044 23 41ZM33 41V44C33 44.7957 32.6839 45.5587 32.1213 46.1213C31.5587 46.6839 30.7956 47 30 47C29.2044 47 28.4413 46.6839 27.8787 46.1213C27.3161 45.5587 27 44.7957 27 44V41C27 40.2044 27.3161 39.4413 27.8787 38.8787C28.4413 38.3161 29.2044 38 30 38C30.7956 38 31.5587 38.3161 32.1213 38.8787C32.6839 39.4413 33 40.2044 33 41Z" fill="white"/>
</svg>
