<svg width="64" height="64" viewBox="0 0 64 64" fill="none" xmlns="http://www.w3.org/2000/svg">
<path d="M25 25C25 24.2044 25.3161 23.4413 25.8787 22.8787C26.4413 22.3161 27.2044 22 28 22H36C36.7956 22 37.5587 22.3161 38.1213 22.8787C38.6839 23.4413 39 24.2044 39 25C39 25.7956 38.6839 26.5587 38.1213 27.1213C37.5587 27.6839 36.7956 28 36 28H28C27.2044 28 26.4413 27.6839 25.8787 27.1213C25.3161 26.5587 25 25.7956 25 25ZM59 17V49C59 50.3261 58.4732 51.5979 57.5355 52.5355C56.5979 53.4732 55.3261 54 54 54H10C8.67392 54 7.40215 53.4732 6.46447 52.5355C5.52678 51.5979 5 50.3261 5 49V17C5 15.6739 5.52678 14.4021 6.46447 13.4645C7.40215 12.5268 8.67392 12 10 12H19V10C19 8.14348 19.7375 6.36301 21.0503 5.05025C22.363 3.7375 24.1435 3 26 3H38C39.8565 3 41.637 3.7375 42.9497 5.05025C44.2625 6.36301 45 8.14348 45 10V12H54C55.3261 12 56.5979 12.5268 57.5355 13.4645C58.4732 14.4021 59 15.6739 59 17ZM25 12H39V10C39 9.73478 38.8946 9.48043 38.7071 9.29289C38.5196 9.10536 38.2652 9 38 9H26C25.7348 9 25.4804 9.10536 25.2929 9.29289C25.1054 9.48043 25 9.73478 25 10V12ZM11 18V26.8075C17.4739 30.2196 24.682 32.0019 32 32C39.3183 32.0017 46.5266 30.2185 53 26.805V18H11ZM53 48V33.485C46.3993 36.4618 39.2409 38.0008 32 38C24.759 38.0013 17.6006 36.4622 11 33.485V48H53Z" fill="white"/>
</svg>
