<svg width="50" height="50" viewBox="0 0 50 50" fill="none" xmlns="http://www.w3.org/2000/svg">
<path d="M38.2812 0H11.7188C5.24666 0 0 5.24666 0 11.7188V38.2812C0 44.7533 5.24666 50 11.7188 50H38.2812C44.7533 50 50 44.7533 50 38.2812V11.7188C50 5.24666 44.7533 0 38.2812 0Z" fill="url(#paint0_linear_189_1348)"/>
<path d="M23.4136 6.07737C24.3743 5.52756 25.6255 5.52502 26.5853 6.07737C31.4138 8.80588 36.2439 11.5299 41.0716 14.26C41.9798 14.7715 42.587 15.7821 42.5779 16.8283V33.2434C42.5847 34.333 41.9173 35.3678 40.9593 35.8676C36.1466 38.5811 31.3363 41.2977 26.5243 44.0112C25.5441 44.5717 24.2677 44.5285 23.3177 43.9219C21.8749 43.0856 20.4296 42.2531 18.9866 41.4176C18.6917 41.2418 18.3593 41.102 18.1511 40.816C18.3353 40.568 18.6644 40.5371 18.9318 40.4287C19.5339 40.2371 20.0872 39.9297 20.6404 39.6315C20.7804 39.5358 20.9511 39.5725 21.0853 39.658C22.3191 40.3655 23.5421 41.0936 24.78 41.7942C25.0441 41.9467 25.3115 41.7442 25.5372 41.6184C30.2599 38.949 34.9884 36.2901 39.7105 33.6199C39.8855 33.5358 39.9822 33.35 39.9679 33.1584C39.9712 27.7434 39.9687 22.3276 39.9697 16.9123C39.9896 16.6951 39.8638 16.4951 39.6671 16.4061C34.8712 13.7051 30.0775 11.0002 25.2823 8.29866C25.1993 8.2415 25.1009 8.21082 25.0001 8.21064C24.8993 8.21047 24.8008 8.24081 24.7175 8.29768C19.9222 11.0002 15.1296 13.7078 10.3343 16.4084C10.1384 16.4977 10.007 16.6944 10.0302 16.9123C10.0312 22.3276 10.0302 27.7434 10.0302 33.1592C10.0219 33.2527 10.0424 33.3466 10.0891 33.4281C10.1357 33.5096 10.2063 33.5749 10.2911 33.6151C11.5706 34.3406 12.8519 35.0612 14.1323 35.7844C14.8538 36.1725 15.7394 36.4033 16.5341 36.1059C17.2355 35.8543 17.7271 35.1385 17.7138 34.394C17.7204 29.0106 17.7105 23.6264 17.7187 18.2436C17.7011 18.0047 17.9279 17.8073 18.1603 17.8299C18.7751 17.8256 19.3907 17.8215 20.0056 17.8315C20.2622 17.8256 20.4388 18.083 20.4072 18.3237C20.4046 23.7412 20.4138 29.1588 20.4031 34.5762C20.4046 36.0201 19.8114 37.5912 18.4759 38.2977C16.8308 39.1498 14.7972 38.9692 13.1718 38.152C11.7648 37.4496 10.4218 36.6207 9.03977 35.8684C8.07922 35.3713 7.41516 34.3324 7.422 33.2436V16.8283C7.41184 15.7604 8.04329 14.7315 8.97961 14.2274C13.7915 11.5119 18.6027 8.79417 23.4136 6.07737Z" fill="white"/>
<path d="M27.6117 17.4482C29.7103 17.313 31.957 17.3681 33.8455 18.4021C35.3078 19.1943 36.1184 20.8572 36.1441 22.4816C36.1033 22.7005 35.8742 22.8214 35.665 22.8064C35.0562 22.8056 34.4471 22.8148 33.8383 22.8023C33.5799 22.8123 33.4299 22.5742 33.3975 22.3459C33.2225 21.5685 32.7984 20.7988 32.067 20.4238C30.9439 19.8617 29.642 19.89 28.4174 19.9017C27.5234 19.949 26.5621 20.0265 25.8047 20.5521C25.2232 20.9503 25.0467 21.7543 25.2541 22.4017C25.4498 22.8666 25.9863 23.0166 26.4256 23.1548C28.9547 23.8164 31.6348 23.7503 34.1156 24.6209C35.1428 24.9757 36.1475 25.6658 36.499 26.7412C36.959 28.1826 36.7574 29.9052 35.7318 31.0623C34.9002 32.0144 33.6891 32.5328 32.4811 32.8142C30.874 33.1726 29.2062 33.1818 27.5742 33.0226C26.0396 32.8476 24.4426 32.4445 23.258 31.399C22.2449 30.5193 21.7502 29.1486 21.7992 27.8259C21.8109 27.6025 22.0334 27.4466 22.2475 27.465C22.8605 27.4601 23.4738 27.4584 24.0869 27.466C24.332 27.4484 24.5135 27.6601 24.5262 27.891C24.6391 28.6314 24.9174 29.4087 25.5633 29.8476C26.8094 30.6517 28.3732 30.5966 29.8002 30.6191C30.9824 30.5668 32.3096 30.5509 33.2742 29.7695C33.7832 29.3238 33.934 28.5781 33.7965 27.9367C33.6475 27.3951 33.0809 27.1427 32.5943 26.9777C30.0977 26.188 27.3875 26.4746 24.915 25.5814C23.9111 25.2267 22.9404 24.556 22.5549 23.5248C22.0168 22.0652 22.2633 20.2597 23.3963 19.1419C24.501 18.0296 26.0955 17.6013 27.6117 17.4482Z" fill="#EBEBEB"/>
<defs>
<linearGradient id="paint0_linear_189_1348" x1="25" y1="0" x2="25" y2="50" gradientUnits="userSpaceOnUse">
<stop stop-color="#E9E9E9"/>
<stop offset="0.510417" stop-color="#8C8380"/>
<stop offset="1" stop-color="#ADA29F"/>
</linearGradient>
</defs>
</svg>
