<svg width="64" height="64" viewBox="0 0 64 64" fill="none" xmlns="http://www.w3.org/2000/svg">
<path d="M57.6173 16.875C57.4353 16.4252 57.1469 16.0263 56.7769 15.7124C56.4069 15.3985 55.9663 15.1791 55.4929 15.0729C55.0194 14.9667 54.5273 14.9769 54.0587 15.1027C53.5901 15.2285 53.1589 15.466 52.8023 15.795L43.1073 24.75L39.9373 24.07L39.2498 20.8925L48.1973 11.1975C48.5262 10.8408 48.7638 10.4097 48.8896 9.9411C49.0153 9.47248 49.0255 8.98035 48.9194 8.50691C48.8132 8.03347 48.5937 7.59285 48.2799 7.22284C47.966 6.85284 47.5671 6.56448 47.1173 6.38249C43.6731 4.98901 39.8958 4.63594 36.253 5.36695C32.6102 6.09796 29.2617 7.88098 26.6217 10.4954C23.9818 13.1098 22.1663 16.4409 21.3999 20.0764C20.6335 23.7119 20.9498 27.4924 22.3098 30.95L7.79228 43.5C7.73728 43.5475 7.68228 43.5975 7.63228 43.65C5.96715 45.3425 5.03826 47.6243 5.04793 49.9986C5.05759 52.3728 6.00504 54.647 7.68389 56.3259C9.36274 58.0047 11.637 58.9522 14.0112 58.9618C16.3854 58.9715 18.6673 58.0426 20.3598 56.3775C20.4123 56.3275 20.4623 56.2725 20.5098 56.2175L33.0498 41.7C36.5092 43.0626 40.2924 43.3802 43.9307 42.6134C47.5689 41.8467 50.9022 40.0294 53.5175 37.3866C56.1329 34.7438 57.9154 31.3918 58.6441 27.7458C59.3729 24.0998 59.0158 20.3201 57.6173 16.875ZM39.9998 37C37.8029 37.0001 35.6417 36.4445 33.7173 35.385C33.1152 35.0531 32.4175 34.9381 31.7408 35.0591C31.064 35.1802 30.4494 35.53 29.9998 36.05L16.0523 52.1875C15.4887 52.7511 14.7243 53.0677 13.9273 53.0677C13.1302 53.0677 12.3659 52.7511 11.8023 52.1875C11.2387 51.6239 10.9221 50.8595 10.9221 50.0625C10.9221 49.2655 11.2387 48.5011 11.8023 47.9375L27.9498 34C28.4706 33.5497 28.8206 32.934 28.9413 32.2563C29.0619 31.5785 28.9457 30.8798 28.6123 30.2775C27.5207 28.2979 26.9641 26.0679 26.9976 23.8075C27.0311 21.5471 27.6534 19.3345 28.8032 17.3881C29.9529 15.4417 31.5904 13.8288 33.5539 12.7085C35.5174 11.5882 37.7391 10.9994 39.9998 11H40.2223L33.7923 17.9675C33.4667 18.3206 33.2307 18.7468 33.1041 19.2101C32.9775 19.6734 32.964 20.1604 33.0648 20.63L34.4798 27.2175C34.6012 27.7822 34.883 28.2999 35.2915 28.7083C35.6999 29.1168 36.2176 29.3986 36.7823 29.52L43.3698 30.935C43.8394 31.0357 44.3263 31.0222 44.7897 30.8956C45.253 30.769 45.6791 30.533 46.0323 30.2075L52.9998 23.78V24.0025C52.9951 27.4487 51.6239 30.7523 49.1869 33.1889C46.7499 35.6255 43.4459 36.996 39.9998 37Z" fill="white"/>
</svg>
