<svg width="64" height="64" viewBox="0 0 64 64" fill="none" xmlns="http://www.w3.org/2000/svg">
<path d="M56.3025 14.0775C56.021 13.7403 55.6689 13.469 55.271 13.2828C54.8732 13.0966 54.4393 13.0001 54 13H14.5L13.4325 7.105C13.2229 5.95294 12.6156 4.91099 11.7165 4.16081C10.8174 3.41064 9.68347 2.99982 8.5125 3H4C3.20435 3 2.44129 3.31607 1.87868 3.87868C1.31607 4.44129 1 5.20435 1 6C1 6.79565 1.31607 7.55871 1.87868 8.12132C2.44129 8.68393 3.20435 9 4 9H7.6775L13.905 43.25C14.0722 44.1597 14.418 45.0272 14.9225 45.8025C14.0294 46.8475 13.4206 48.1051 13.1549 49.4538C12.8892 50.8026 12.9755 52.1971 13.4056 53.5028C13.8357 54.8085 14.5949 55.9813 15.6102 56.9082C16.6254 57.8351 17.8623 58.4847 19.2017 58.7944C20.541 59.1041 21.9376 59.0635 23.2567 58.6764C24.5757 58.2893 25.7728 57.5689 26.7324 56.5845C27.692 55.6002 28.3818 54.3852 28.7352 53.0567C29.0886 51.7282 29.0937 50.331 28.75 49H37.25C36.8329 50.6153 36.9313 52.3205 37.5313 53.8772C38.1312 55.4338 39.2029 56.7639 40.5962 57.6814C41.9895 58.5989 43.6347 59.0579 45.3018 58.9942C46.9688 58.9304 48.5742 58.3471 49.8934 57.3258C51.2125 56.3045 52.1793 54.8964 52.6587 53.2985C53.138 51.7006 53.1058 49.9928 52.5665 48.4141C52.0273 46.8354 51.008 45.4647 49.6512 44.494C48.2945 43.5232 46.6683 43.0008 45 43H20.7925C20.5587 42.9997 20.3324 42.9175 20.1529 42.7677C19.9734 42.6179 19.8521 42.41 19.81 42.18L19.23 39H47.025C48.6647 39 50.2524 38.4244 51.5111 37.3736C52.7698 36.3227 53.6197 34.8633 53.9125 33.25L56.9525 16.535C57.0307 16.1028 57.013 15.6586 56.9007 15.234C56.7883 14.8094 56.5841 14.4146 56.3025 14.0775ZM23 51C23 51.3956 22.8827 51.7822 22.6629 52.1111C22.4432 52.44 22.1308 52.6964 21.7654 52.8478C21.3999 52.9991 20.9978 53.0387 20.6098 52.9616C20.2219 52.8844 19.8655 52.6939 19.5858 52.4142C19.3061 52.1345 19.1156 51.7781 19.0384 51.3902C18.9613 51.0022 19.0009 50.6001 19.1522 50.2346C19.3036 49.8692 19.56 49.5568 19.8889 49.3371C20.2178 49.1173 20.6044 49 21 49C21.5304 49 22.0391 49.2107 22.4142 49.5858C22.7893 49.9609 23 50.4696 23 51ZM45 53C44.6044 53 44.2178 52.8827 43.8889 52.6629C43.56 52.4432 43.3036 52.1308 43.1522 51.7654C43.0009 51.3999 42.9613 50.9978 43.0384 50.6098C43.1156 50.2219 43.3061 49.8655 43.5858 49.5858C43.8655 49.3061 44.2219 49.1156 44.6098 49.0384C44.9978 48.9613 45.3999 49.0009 45.7654 49.1522C46.1308 49.3036 46.4432 49.56 46.6629 49.8889C46.8827 50.2178 47 50.6044 47 51C47 51.5304 46.7893 52.0391 46.4142 52.4142C46.0391 52.7893 45.5304 53 45 53ZM48 32.18C47.9582 32.4087 47.8379 32.6157 47.66 32.7654C47.482 32.915 47.2575 32.998 47.025 33H18.14L15.595 19H50.405L48 32.18Z" fill="white"/>
</svg>
