<svg width="25" height="28" viewBox="0 0 25 28" fill="none" xmlns="http://www.w3.org/2000/svg">
<g filter="url(#filter0_d_117_698)">
<path d="M17.6876 6.5625C17.3884 6.56161 17.0915 6.61454 16.811 6.71875C16.5589 6.1998 16.135 5.78404 15.6113 5.54197C15.0876 5.2999 14.4963 5.24643 13.9376 5.39062V3.4375C13.9376 2.77446 13.6742 2.13857 13.2054 1.66973C12.7365 1.20089 12.1006 0.9375 11.4376 0.9375C10.7746 0.9375 10.1387 1.20089 9.66984 1.66973C9.201 2.13857 8.93761 2.77446 8.93761 3.4375V8.65859C8.5286 8.18961 7.95939 7.89002 7.34124 7.81839C6.7231 7.74676 6.10046 7.90824 5.59504 8.27127C5.08962 8.63429 4.73775 9.17276 4.60823 9.78141C4.4787 10.3901 4.58083 11.0251 4.89464 11.5625L5.26026 12.2063C7.93058 16.9125 9.15011 19.0625 13.0001 19.0625C14.9057 19.0604 16.7327 18.3025 18.0802 16.955C19.4276 15.6076 20.1855 13.7806 20.1876 11.875V9.0625C20.1876 8.39946 19.9242 7.76357 19.4554 7.29473C18.9865 6.82589 18.3506 6.5625 17.6876 6.5625ZM18.3126 11.875C18.311 13.2835 17.7507 14.6337 16.7548 15.6297C15.7589 16.6256 14.4086 17.1858 13.0001 17.1875C10.3439 17.1875 9.60245 16.0586 6.89073 11.2773L6.52433 10.6305C6.52392 10.6287 6.52392 10.6268 6.52433 10.625C6.44145 10.4814 6.419 10.3108 6.46193 10.1506C6.50486 9.9905 6.60964 9.85397 6.75323 9.77109C6.89682 9.68821 7.06745 9.66577 7.22759 9.7087C7.38773 9.75163 7.52426 9.85641 7.60714 10C7.61183 10.0094 7.61729 10.018 7.62276 10.0273L9.08214 12.3711C9.19037 12.5427 9.35136 12.6746 9.54094 12.7469C9.73051 12.8192 9.93843 12.8281 10.1335 12.7722C10.3285 12.7163 10.5002 12.5986 10.6226 12.4368C10.7451 12.275 10.8117 12.0779 10.8126 11.875V3.4375C10.8126 3.27174 10.8785 3.11277 10.9957 2.99556C11.1129 2.87835 11.2718 2.8125 11.4376 2.8125C11.6034 2.8125 11.7623 2.87835 11.8795 2.99556C11.9968 3.11277 12.0626 3.27174 12.0626 3.4375V8.75C12.0626 8.99864 12.1614 9.2371 12.3372 9.41291C12.513 9.58873 12.7515 9.6875 13.0001 9.6875C13.2487 9.6875 13.4872 9.58873 13.663 9.41291C13.8388 9.2371 13.9376 8.99864 13.9376 8.75V7.8125C13.9376 7.64674 14.0035 7.48777 14.1207 7.37056C14.2379 7.25335 14.3968 7.1875 14.5626 7.1875C14.7284 7.1875 14.8873 7.25335 15.0045 7.37056C15.1218 7.48777 15.1876 7.64674 15.1876 7.8125V9.375C15.1876 9.62364 15.2864 9.8621 15.4622 10.0379C15.638 10.2137 15.8765 10.3125 16.1251 10.3125C16.3737 10.3125 16.6122 10.2137 16.788 10.0379C16.9638 9.8621 17.0626 9.62364 17.0626 9.375V9.0625C17.0626 8.89674 17.1285 8.73777 17.2457 8.62056C17.3629 8.50335 17.5218 8.4375 17.6876 8.4375C17.8534 8.4375 18.0123 8.50335 18.1295 8.62056C18.2468 8.73777 18.3126 8.89674 18.3126 9.0625V11.875Z" fill="#161723"/>
</g>
<defs>
<filter id="filter0_d_117_698" x="-1" y="0" width="28" height="28" filterUnits="userSpaceOnUse" color-interpolation-filters="sRGB">
<feFlood flood-opacity="0" result="BackgroundImageFix"/>
<feColorMatrix in="SourceAlpha" type="matrix" values="0 0 0 0 0 0 0 0 0 0 0 0 0 0 0 0 0 0 127 0" result="hardAlpha"/>
<feOffset dy="4"/>
<feGaussianBlur stdDeviation="2"/>
<feComposite in2="hardAlpha" operator="out"/>
<feColorMatrix type="matrix" values="0 0 0 0 0 0 0 0 0 0 0 0 0 0 0 0 0 0 0.25 0"/>
<feBlend mode="normal" in2="BackgroundImageFix" result="effect1_dropShadow_117_698"/>
<feBlend mode="normal" in="SourceGraphic" in2="effect1_dropShadow_117_698" result="shape"/>
</filter>
</defs>
</svg>
